<svg width="227" height="50" viewBox="0 0 227 50" fill="none" xmlns="http://www.w3.org/2000/svg">
<rect x="31.3395" y="0.678955" width="11.0972" height="49.3211" rx="5.54862" fill="#FEC395"/>
<rect y="0.678955" width="11.0972" height="49.3211" rx="5.54862" fill="#6AC8D2"/>
<path d="M56 19.7909C56 25.9197 51.0316 30.8881 44.9028 30.8881H11.0972V19.7909L56 19.7909Z" fill="url(#paint0_linear_242_3965)"/>
<path d="M116.644 14.0286H119.349V31.2719H116.644V14.0286Z" fill="#A8C6B9"/>
<path d="M131.859 33.9767V36.6815H116.644V33.9767H131.859Z" fill="#A8C6B9"/>
<path d="M161.274 14.0682H164.317L164.317 22.772L161.274 25.5638V14.0682Z" fill="#FEC395"/>
<path d="M164.275 31.1355L164.245 26.6162L175.584 13.9989L179.633 14.0259L164.275 31.1355Z" fill="#FEC395"/>
<path d="M168.527 26.3023L170.572 23.8662L180.311 36.7402L176.482 36.7526L168.527 26.3023Z" fill="#FEC395"/>
<path d="M164.317 36.7212H161.274L161.274 29.5534L164.317 26.5781V36.7212Z" fill="#FEC395"/>
<path d="M207.937 14.0682H210.979L210.979 22.772L207.937 25.5638V14.0682Z" fill="#D00A0A"/>
<path d="M210.938 31.1355L210.908 26.6162L222.247 13.9989L226.296 14.0259L210.938 31.1355Z" fill="#D00A0A"/>
<path d="M215.19 26.3023L217.234 23.8662L226.973 36.7402L223.144 36.7526L215.19 26.3023Z" fill="#D00A0A"/>
<path d="M210.979 36.7212H207.936L207.936 29.5534L210.979 26.5781V36.7212Z" fill="#D00A0A"/>
<path d="M100.954 13.9681L103.814 13.9681L95.1927 36.618L92.3171 36.618L100.954 13.9681Z" fill="#89C7C5"/>
<path d="M100.603 30.0258L101.62 27.3963L107.045 27.3882L108.041 30.0147L100.603 30.0258Z" fill="#89C7C5"/>
<path d="M113.112 36.6063L110.239 36.6063L103.997 19.9015L105.486 16.1635L113.112 36.6063Z" fill="#89C7C5"/>
<path d="M192.372 13.9681L195.232 13.9681L186.611 36.618L183.735 36.618L192.372 13.9681Z" fill="#D00A0A"/>
<path d="M192.02 30.0258L193.038 27.3963L198.463 27.3882L199.459 30.0147L192.02 30.0258Z" fill="#D00A0A"/>
<path d="M204.53 36.6063L201.656 36.6063L195.415 19.9015L196.903 16.1635L204.53 36.6063Z" fill="#D00A0A"/>
<rect x="71" y="14.0286" width="2.70483" height="22.653" fill="#6AC8D2"/>
<path d="M86.2146 14.0286H88.9194V36.6815H86.2146V14.0286Z" fill="#6AC8D2"/>
<path d="M86.4602 23.8336L86.4835 26.5384L76.5346 26.6239L76.5113 23.9192L86.4602 23.8336Z" fill="#6AC8D2"/>
<circle cx="146.566" cy="25.355" r="11.3265" fill="#C7C5AC"/>
<circle cx="146.566" cy="25.3549" r="8.95976" fill="white"/>
<rect x="135.24" y="23.8336" width="22.653" height="3.04294" fill="white"/>
<defs>
<linearGradient id="paint0_linear_242_3965" x1="56" y1="19.7909" x2="8.42569" y2="30.8881" gradientUnits="userSpaceOnUse">
<stop offset="0.0033569" stop-color="#D00A0A"/>
<stop offset="0.560278" stop-color="#D00A0A" stop-opacity="0.929772"/>
<stop offset="1" stop-color="#D00A0A" stop-opacity="0.5"/>
</linearGradient>
</defs>
</svg>
