<svg width="162" height="102" viewBox="0 0 162 102" fill="none" xmlns="http://www.w3.org/2000/svg">
<path d="M0 15C0 6.71573 6.71573 0 15 0H162V101H0V15Z" fill="white"/>
<path d="M0.5 15C0.5 6.99187 6.99187 0.5 15 0.5H161.5V100.5H0.5V15Z" stroke="#6AC8D2" stroke-opacity="0.8"/>
<mask id="path-3-inside-1_242_1836" fill="white">
<path fill-rule="evenodd" clip-rule="evenodd" d="M161.6 57.6591V101.245H121.26C116.49 96.1287 113.6 89.4368 113.6 82.1134C113.6 66.0345 127.529 53 144.711 53C150.937 53 156.736 54.7115 161.6 57.6591Z"/>
</mask>
<path fill-rule="evenodd" clip-rule="evenodd" d="M161.6 57.6591V101.245H121.26C116.49 96.1287 113.6 89.4368 113.6 82.1134C113.6 66.0345 127.529 53 144.711 53C150.937 53 156.736 54.7115 161.6 57.6591Z" fill="#FEC395"/>
<path d="M161.6 57.6591H162.6V57.0959L162.118 56.8039L161.6 57.6591ZM161.6 101.245V102.245H162.6V101.245H161.6ZM121.26 101.245L120.529 101.927L120.825 102.245H121.26V101.245ZM160.6 57.6591V101.245H162.6V57.6591H160.6ZM161.6 100.245H121.26V102.245H161.6V100.245ZM121.991 100.563C117.381 95.6184 114.6 89.1659 114.6 82.1134H112.6C112.6 89.7077 115.598 96.6389 120.529 101.927L121.991 100.563ZM114.6 82.1134C114.6 66.6483 128.018 54 144.711 54V52C127.04 52 112.6 65.4207 112.6 82.1134H114.6ZM144.711 54C150.753 54 156.373 55.6605 161.082 58.5143L162.118 56.8039C157.1 53.7625 151.122 52 144.711 52V54Z" fill="#6AC8D2" fill-opacity="0.8" mask="url(#path-3-inside-1_242_1836)"/>
<path d="M146.4 79.3902H134.4" stroke="#D00A0A" stroke-width="1.5" stroke-linecap="round" stroke-linejoin="round"/>
<path d="M141.56 75.0412L146.4 79.3899L141.56 83.7393" stroke="#D00A0A" stroke-width="1.5" stroke-linecap="round" stroke-linejoin="round"/>
<path d="M16.424 84.2482C15.7053 84.2482 15.0613 84.1315 14.492 83.8982C13.9227 83.6649 13.4653 83.3195 13.12 82.8622C12.784 82.4049 12.6067 81.8542 12.588 81.2102H15.136C15.1733 81.5742 15.2993 81.8542 15.514 82.0502C15.7287 82.2369 16.0087 82.3302 16.354 82.3302C16.7087 82.3302 16.9887 82.2509 17.194 82.0922C17.3993 81.9242 17.502 81.6955 17.502 81.4062C17.502 81.1635 17.418 80.9629 17.25 80.8042C17.0913 80.6455 16.8907 80.5149 16.648 80.4122C16.4147 80.3095 16.0787 80.1929 15.64 80.0622C15.0053 79.8662 14.4873 79.6702 14.086 79.4742C13.6847 79.2782 13.3393 78.9889 13.05 78.6062C12.7607 78.2235 12.616 77.7242 12.616 77.1082C12.616 76.1935 12.9473 75.4795 13.61 74.9662C14.2727 74.4435 15.136 74.1822 16.2 74.1822C17.2827 74.1822 18.1553 74.4435 18.818 74.9662C19.4807 75.4795 19.8353 76.1982 19.882 77.1222H17.292C17.2733 76.8049 17.1567 76.5575 16.942 76.3802C16.7273 76.1935 16.452 76.1002 16.116 76.1002C15.8267 76.1002 15.5933 76.1795 15.416 76.3382C15.2387 76.4875 15.15 76.7069 15.15 76.9962C15.15 77.3135 15.2993 77.5609 15.598 77.7382C15.8967 77.9155 16.3633 78.1069 16.998 78.3122C17.6327 78.5269 18.146 78.7322 18.538 78.9282C18.9393 79.1242 19.2847 79.4089 19.574 79.7822C19.8633 80.1555 20.008 80.6362 20.008 81.2242C20.008 81.7842 19.8633 82.2929 19.574 82.7502C19.294 83.2075 18.8833 83.5715 18.342 83.8422C17.8007 84.1129 17.1613 84.2482 16.424 84.2482ZM21.0053 80.2442C21.0053 79.4322 21.1686 78.7229 21.4953 78.1162C21.8313 77.5095 22.2933 77.0429 22.8813 76.7162C23.4786 76.3895 24.1599 76.2262 24.9253 76.2262C25.9053 76.2262 26.7219 76.4829 27.3753 76.9962C28.0379 77.5095 28.4719 78.2329 28.6773 79.1662H26.1293C25.9146 78.5689 25.4993 78.2702 24.8833 78.2702C24.4446 78.2702 24.0946 78.4429 23.8333 78.7882C23.5719 79.1242 23.4413 79.6095 23.4413 80.2442C23.4413 80.8789 23.5719 81.3689 23.8333 81.7142C24.0946 82.0502 24.4446 82.2182 24.8833 82.2182C25.4993 82.2182 25.9146 81.9195 26.1293 81.3222H28.6773C28.4719 82.2369 28.0379 82.9555 27.3753 83.4782C26.7126 84.0009 25.8959 84.2622 24.9253 84.2622C24.1599 84.2622 23.4786 84.0989 22.8813 83.7722C22.2933 83.4455 21.8313 82.9789 21.4953 82.3722C21.1686 81.7655 21.0053 81.0562 21.0053 80.2442ZM31.1618 75.5262C30.7418 75.5262 30.3965 75.4049 30.1258 75.1622C29.8645 74.9102 29.7338 74.6022 29.7338 74.2382C29.7338 73.8649 29.8645 73.5569 30.1258 73.3142C30.3965 73.0622 30.7418 72.9362 31.1618 72.9362C31.5725 72.9362 31.9085 73.0622 32.1698 73.3142C32.4405 73.5569 32.5758 73.8649 32.5758 74.2382C32.5758 74.6022 32.4405 74.9102 32.1698 75.1622C31.9085 75.4049 31.5725 75.5262 31.1618 75.5262ZM32.3518 76.3382V84.1502H29.9578V76.3382H32.3518ZM41.4507 80.1182C41.4507 80.3422 41.4368 80.5755 41.4088 80.8182H35.9908C36.0281 81.3035 36.1821 81.6769 36.4528 81.9382C36.7328 82.1902 37.0734 82.3162 37.4748 82.3162C38.0721 82.3162 38.4874 82.0642 38.7208 81.5602H41.2688C41.1381 82.0735 40.9001 82.5355 40.5548 82.9462C40.2188 83.3569 39.7941 83.6789 39.2808 83.9122C38.7674 84.1455 38.1934 84.2622 37.5588 84.2622C36.7934 84.2622 36.1121 84.0989 35.5148 83.7722C34.9174 83.4455 34.4508 82.9789 34.1148 82.3722C33.7788 81.7655 33.6108 81.0562 33.6108 80.2442C33.6108 79.4322 33.7741 78.7229 34.1008 78.1162C34.4368 77.5095 34.9034 77.0429 35.5008 76.7162C36.0981 76.3895 36.7841 76.2262 37.5588 76.2262C38.3148 76.2262 38.9868 76.3849 39.5748 76.7022C40.1628 77.0195 40.6201 77.4722 40.9468 78.0602C41.2828 78.6482 41.4507 79.3342 41.4507 80.1182ZM39.0008 79.4882C39.0008 79.0775 38.8608 78.7509 38.5808 78.5082C38.3008 78.2655 37.9508 78.1442 37.5308 78.1442C37.1294 78.1442 36.7888 78.2609 36.5088 78.4942C36.2381 78.7275 36.0701 79.0589 36.0048 79.4882H39.0008ZM47.4737 76.2542C48.3884 76.2542 49.1164 76.5529 49.6577 77.1502C50.2084 77.7382 50.4837 78.5502 50.4837 79.5862V84.1502H48.1037V79.9082C48.1037 79.3855 47.9684 78.9795 47.6977 78.6902C47.427 78.4009 47.063 78.2562 46.6057 78.2562C46.1484 78.2562 45.7844 78.4009 45.5137 78.6902C45.243 78.9795 45.1077 79.3855 45.1077 79.9082V84.1502H42.7137V76.3382H45.1077V77.3742C45.3504 77.0289 45.677 76.7582 46.0877 76.5622C46.4984 76.3569 46.9604 76.2542 47.4737 76.2542ZM56.5013 82.1202V84.1502H55.2833C54.4153 84.1502 53.7386 83.9402 53.2533 83.5202C52.768 83.0909 52.5253 82.3955 52.5253 81.4342V78.3262H51.5733V76.3382H52.5253V74.4342H54.9193V76.3382H56.4873V78.3262H54.9193V81.4622C54.9193 81.6955 54.9753 81.8635 55.0873 81.9662C55.1993 82.0689 55.386 82.1202 55.6473 82.1202H56.5013ZM59.0388 75.5262C58.6188 75.5262 58.2735 75.4049 58.0028 75.1622C57.7415 74.9102 57.6108 74.6022 57.6108 74.2382C57.6108 73.8649 57.7415 73.5569 58.0028 73.3142C58.2735 73.0622 58.6188 72.9362 59.0388 72.9362C59.4495 72.9362 59.7855 73.0622 60.0468 73.3142C60.3175 73.5569 60.4528 73.8649 60.4528 74.2382C60.4528 74.6022 60.3175 74.9102 60.0468 75.1622C59.7855 75.4049 59.4495 75.5262 59.0388 75.5262ZM60.2288 76.3382V84.1502H57.8348V76.3382H60.2288ZM65.1417 84.2622C64.4604 84.2622 63.8537 84.1455 63.3217 83.9122C62.7897 83.6789 62.3697 83.3615 62.0617 82.9602C61.7537 82.5495 61.581 82.0922 61.5437 81.5882H63.9097C63.9377 81.8589 64.0637 82.0782 64.2877 82.2462C64.5117 82.4142 64.787 82.4982 65.1137 82.4982C65.4124 82.4982 65.641 82.4422 65.7997 82.3302C65.9677 82.2089 66.0517 82.0549 66.0517 81.8682C66.0517 81.6442 65.935 81.4809 65.7017 81.3782C65.4684 81.2662 65.0904 81.1449 64.5677 81.0142C64.0077 80.8835 63.541 80.7482 63.1677 80.6082C62.7944 80.4589 62.4724 80.2302 62.2017 79.9222C61.931 79.6049 61.7957 79.1802 61.7957 78.6482C61.7957 78.2002 61.917 77.7942 62.1597 77.4302C62.4117 77.0569 62.7757 76.7629 63.2517 76.5482C63.737 76.3335 64.311 76.2262 64.9737 76.2262C65.9537 76.2262 66.7237 76.4689 67.2837 76.9542C67.853 77.4395 68.1797 78.0835 68.2637 78.8862H66.0517C66.0144 78.6155 65.893 78.4009 65.6877 78.2422C65.4917 78.0835 65.2304 78.0042 64.9037 78.0042C64.6237 78.0042 64.409 78.0602 64.2597 78.1722C64.1104 78.2749 64.0357 78.4195 64.0357 78.6062C64.0357 78.8302 64.1524 78.9982 64.3857 79.1102C64.6284 79.2222 65.0017 79.3342 65.5057 79.4462C66.0844 79.5955 66.5557 79.7449 66.9197 79.8942C67.2837 80.0342 67.601 80.2675 67.8717 80.5942C68.1517 80.9115 68.2964 81.3409 68.3057 81.8822C68.3057 82.3395 68.175 82.7502 67.9137 83.1142C67.6617 83.4689 67.293 83.7489 66.8077 83.9542C66.3317 84.1595 65.7764 84.2622 65.1417 84.2622ZM74.1243 82.1202V84.1502H72.9063C72.0383 84.1502 71.3617 83.9402 70.8763 83.5202C70.391 83.0909 70.1483 82.3955 70.1483 81.4342V78.3262H69.1963V76.3382H70.1483V74.4342H72.5423V76.3382H74.1103V78.3262H72.5423V81.4622C72.5423 81.6955 72.5983 81.8635 72.7103 81.9662C72.8223 82.0689 73.009 82.1202 73.2703 82.1202H74.1243Z" fill="#333333"/>
<g clip-path="url(#clip0_242_1836)">
<path d="M60.3691 42.597H58.5388L58.5321 42.5899C58.2066 42.2486 58.0603 41.7692 58.1407 41.3076C58.1662 41.1585 58.2148 41.0138 58.2852 40.8776L58.842 39.8022L58.6209 35.9497C58.6168 35.8783 58.642 35.8104 58.6917 35.7585C58.7414 35.7065 58.8087 35.6779 58.8812 35.6779H59.2234C59.3642 35.6779 59.4787 35.7866 59.4842 35.9253L59.6332 39.7331L60.4042 40.9221C60.4701 41.0237 60.523 41.1318 60.5616 41.2434C60.7127 41.6764 60.6574 42.1468 60.4097 42.5339L60.4097 42.534L60.3691 42.597L60.3691 42.597Z" fill="#3F3D56"/>
<path d="M60.2116 42.3304C60.1943 42.3574 60.1641 42.3738 60.1317 42.3738H58.7385C58.7116 42.3738 58.6856 42.3628 58.6678 42.3429C58.4327 42.0788 58.329 41.7326 58.3701 41.3952C58.3746 41.3582 58.4023 41.3278 58.4387 41.3183C58.7296 41.2427 59.0806 41.1987 59.4586 41.1987C59.7542 41.1987 60.0334 41.2257 60.2802 41.2736C60.314 41.2801 60.342 41.3045 60.3517 41.3371C60.4503 41.6675 60.4037 42.0302 60.2116 42.3304Z" fill="#6AC8D2"/>
<path d="M74.9049 43.4112H5.09514C5.0426 43.4112 5 43.3692 5 43.3173C5 43.2653 5.0426 43.2233 5.09514 43.2233H74.9049C74.9574 43.2233 75 43.2653 75 43.3173C75 43.3692 74.9574 43.4112 74.9049 43.4112Z" fill="#3F3D56"/>
<path d="M25.497 25.9619C24.474 25.6595 23.8028 24.8931 23.9978 24.2503C24.1928 23.6074 25.18 23.3315 26.2034 23.6342C26.6138 23.7495 26.9903 23.9603 27.3014 24.2488L31.6195 25.5841L30.9417 27.5718L26.7568 26.0444C26.3362 26.1166 25.9043 26.0883 25.497 25.9619H25.497Z" fill="#FEC395"/>
<path d="M44.6519 26.4842L44.7038 29.9953C44.7038 29.9953 40.2343 29.9366 38.6707 30.0587C37.107 30.1808 27.3601 26.6576 27.3601 26.6576L28.9789 24.3908L39.7313 26.9538L44.6519 26.4842Z" fill="#E6E6E6"/>
<path d="M25.8151 21.7097H25.1492V30.6346H25.8151V21.7097Z" fill="#6AC8D2"/>
<path d="M28.2196 43.3173H24.3675L24.3534 43.3025C23.6685 42.5842 23.3605 41.5753 23.5297 40.6037C23.5835 40.29 23.6858 39.9855 23.8339 39.6987L25.0058 37.4356L24.5404 29.3277C24.5318 29.1774 24.5847 29.0345 24.6893 28.9252C24.7939 28.8159 24.9357 28.7557 25.0883 28.7557H25.8085C26.1047 28.7557 26.3458 28.9843 26.3573 29.2762L26.6708 37.2902L28.2934 39.7925C28.4321 40.0063 28.5435 40.2338 28.6247 40.4686C28.9428 41.3798 28.8263 42.3699 28.3051 43.1845L28.305 43.1847L28.2196 43.3173H28.2196Z" fill="#3F3D56"/>
<path d="M27.8882 42.7564C27.8516 42.8132 27.7882 42.8476 27.7201 42.8476H24.7879C24.7314 42.8476 24.6765 42.8245 24.6392 42.7826C24.1442 42.2267 23.9262 41.4981 24.0126 40.7881C24.0221 40.7103 24.0803 40.6463 24.1571 40.6264C24.7692 40.4671 25.5079 40.3745 26.3034 40.3745C26.9255 40.3745 27.5131 40.4314 28.0326 40.5322C28.1037 40.546 28.1625 40.5972 28.183 40.6658C28.3905 41.3612 28.2924 42.1246 27.8882 42.7564V42.7564Z" fill="#6AC8D2"/>
<path d="M41.7978 21.5218L42.3686 25.3736L37.8021 25.8433L38.0875 20.8642L41.7978 21.5218Z" fill="#FEC395"/>
<path d="M37.4571 22.6691C39.158 22.6691 40.5368 21.3075 40.5368 19.6279C40.5368 17.9482 39.158 16.5866 37.4571 16.5866C35.7562 16.5866 34.3773 17.9482 34.3773 19.6279C34.3773 21.3075 35.7562 22.6691 37.4571 22.6691Z" fill="#FEC395"/>
<path d="M27.8621 33.4266C26.9911 32.6543 25.8699 32.4807 25.3579 33.0387C24.846 33.5968 25.1372 34.6749 26.0087 35.4474C26.3524 35.7607 26.7693 35.9866 27.2244 36.1061L30.9582 39.3313L32.4987 37.5364L28.6542 34.5476C28.4864 34.1148 28.2148 33.7304 27.8621 33.4266V33.4266Z" fill="#FEC395"/>
<path d="M38.0876 24.9039L42.7492 24.2463L45.5082 26.3131L45.7936 37.6805L48.4573 55.8121L30.7622 56C30.7622 56 32.0941 44.2568 32.76 43.5991C33.426 42.9415 33.9017 39.9352 33.9017 39.9352L35.2336 26.9707L38.0876 24.9039Z" fill="#E6E6E6"/>
<path d="M36.3275 26.9238C36.3275 26.9238 33.854 26.7359 33.2832 28.4269C32.7124 30.1179 32.0465 35.6607 32.0465 35.6607L30.5243 35.8486L29.1924 34.4394L27.7654 37.8215C27.7654 37.8215 32.8075 43.2703 34.7102 40.8278C36.6129 38.3852 36.3275 26.9238 36.3275 26.9238Z" fill="#E6E6E6"/>
<path d="M42.7016 21.1978C42.7016 21.1978 42.7016 18.1868 42.987 17.2473C43.2724 16.3078 41.6551 15.2744 41.1795 14.335C40.7038 13.3955 37.7546 14.7108 36.5178 14.8987C35.2811 15.0865 35.3762 15.8381 34.6151 17.0594C33.8541 18.2807 35.3762 20.1596 36.5178 20.3475C37.6595 20.5354 37.2789 21.3809 38.0621 22.3204C38.8453 23.2598 41.3468 22.3204 41.3468 22.3204L41.6551 22.7901C41.6551 22.7901 40.9892 25.4206 42.2259 27.6753L45.4605 28.5208C44.5092 25.7024 45.5557 25.7024 46.1523 24.2463C46.749 22.7901 42.7016 21.1978 42.7016 21.1978Z" fill="#2F2E41"/>
<path d="M65.3263 42.5022H63.6307V39.6951H65.3263C65.5191 39.6945 65.6749 39.5397 65.6743 39.3493C65.6738 39.1597 65.5183 39.0062 65.3263 39.0056H53.5069C53.3141 39.0062 53.1582 39.161 53.1588 39.3514C53.1594 39.541 53.3149 39.6945 53.5069 39.6951H54.9531V42.5022H53.5069C53.3141 42.5027 53.1582 42.6575 53.1588 42.8479C53.1594 43.0375 53.3149 43.1911 53.5069 43.1916H65.3263C65.5191 43.1911 65.6749 43.0363 65.6743 42.8459C65.6738 42.6563 65.5183 42.5027 65.3263 42.5022H65.3263ZM55.6513 42.5022L56.4487 40.405L62.9325 39.6951V42.5022H55.6513V42.5022Z" fill="#F2F2F2"/>
</g>
<defs>
<clipPath id="clip0_242_1836">
<rect width="70" height="42" fill="white" transform="translate(5 14)"/>
</clipPath>
</defs>
</svg>
