<svg width="162" height="102" viewBox="0 0 162 102" fill="none" xmlns="http://www.w3.org/2000/svg">
<path d="M0 15C0 6.71573 6.71573 0 15 0H162V101H0V15Z" fill="white"/>
<path d="M0.5 15C0.5 6.99187 6.99187 0.5 15 0.5H161.5V100.5H0.5V15Z" stroke="#6AC8D2" stroke-opacity="0.8"/>
<mask id="path-3-inside-1_242_1835" fill="white">
<path fill-rule="evenodd" clip-rule="evenodd" d="M161.6 57.6591V101.245H121.26C116.49 96.1287 113.6 89.4368 113.6 82.1134C113.6 66.0345 127.529 53 144.711 53C150.937 53 156.736 54.7115 161.6 57.6591Z"/>
</mask>
<path fill-rule="evenodd" clip-rule="evenodd" d="M161.6 57.6591V101.245H121.26C116.49 96.1287 113.6 89.4368 113.6 82.1134C113.6 66.0345 127.529 53 144.711 53C150.937 53 156.736 54.7115 161.6 57.6591Z" fill="#FEC395"/>
<path d="M161.6 57.6591H162.6V57.0959L162.118 56.8039L161.6 57.6591ZM161.6 101.245V102.245H162.6V101.245H161.6ZM121.26 101.245L120.529 101.927L120.825 102.245H121.26V101.245ZM160.6 57.6591V101.245H162.6V57.6591H160.6ZM161.6 100.245H121.26V102.245H161.6V100.245ZM121.991 100.563C117.381 95.6184 114.6 89.1659 114.6 82.1134H112.6C112.6 89.7077 115.598 96.6389 120.529 101.927L121.991 100.563ZM114.6 82.1134C114.6 66.6483 128.018 54 144.711 54V52C127.04 52 112.6 65.4207 112.6 82.1134H114.6ZM144.711 54C150.753 54 156.373 55.6605 161.082 58.5143L162.118 56.8039C157.1 53.7625 151.122 52 144.711 52V54Z" fill="#6AC8D2" fill-opacity="0.8" mask="url(#path-3-inside-1_242_1835)"/>
<path d="M146.4 79.3902H134.4" stroke="#D00A0A" stroke-width="1.5" stroke-linecap="round" stroke-linejoin="round"/>
<path d="M141.56 75.0412L146.4 79.3899L141.56 83.7393" stroke="#D00A0A" stroke-width="1.5" stroke-linecap="round" stroke-linejoin="round"/>
<path d="M16.55 74.3222C17.586 74.3222 18.4913 74.5275 19.266 74.9382C20.0407 75.3489 20.638 75.9275 21.058 76.6742C21.4873 77.4115 21.702 78.2655 21.702 79.2362C21.702 80.1975 21.4873 81.0515 21.058 81.7982C20.638 82.5449 20.036 83.1235 19.252 83.5342C18.4773 83.9449 17.5767 84.1502 16.55 84.1502H12.868V74.3222H16.55ZM16.396 82.0782C17.3013 82.0782 18.006 81.8309 18.51 81.3362C19.014 80.8415 19.266 80.1415 19.266 79.2362C19.266 78.3309 19.014 77.6262 18.51 77.1222C18.006 76.6182 17.3013 76.3662 16.396 76.3662H15.262V82.0782H16.396ZM26.5959 84.2622C25.8305 84.2622 25.1399 84.0989 24.5239 83.7722C23.9172 83.4455 23.4365 82.9789 23.0819 82.3722C22.7365 81.7655 22.5639 81.0562 22.5639 80.2442C22.5639 79.4415 22.7412 78.7369 23.0959 78.1302C23.4505 77.5142 23.9359 77.0429 24.5519 76.7162C25.1679 76.3895 25.8585 76.2262 26.6239 76.2262C27.3892 76.2262 28.0799 76.3895 28.6959 76.7162C29.3119 77.0429 29.7972 77.5142 30.1519 78.1302C30.5065 78.7369 30.6839 79.4415 30.6839 80.2442C30.6839 81.0469 30.5019 81.7562 30.1379 82.3722C29.7832 82.9789 29.2932 83.4455 28.6679 83.7722C28.0519 84.0989 27.3612 84.2622 26.5959 84.2622ZM26.5959 82.1902C27.0532 82.1902 27.4405 82.0222 27.7579 81.6862C28.0845 81.3502 28.2479 80.8695 28.2479 80.2442C28.2479 79.6189 28.0892 79.1382 27.7719 78.8022C27.4639 78.4662 27.0812 78.2982 26.6239 78.2982C26.1572 78.2982 25.7699 78.4662 25.4619 78.8022C25.1539 79.1289 24.9999 79.6095 24.9999 80.2442C24.9999 80.8695 25.1492 81.3502 25.4479 81.6862C25.7559 82.0222 26.1385 82.1902 26.5959 82.1902ZM36.7279 84.1502L34.3479 80.8742V84.1502H31.9539V73.7902H34.3479V79.5162L36.7139 76.3382H39.6679L36.4199 80.2582L39.6959 84.1502H36.7279ZM44.9622 82.1202V84.1502H43.7442C42.8762 84.1502 42.1996 83.9402 41.7142 83.5202C41.2289 83.0909 40.9862 82.3955 40.9862 81.4342V78.3262H40.0342V76.3382H40.9862V74.4342H43.3802V76.3382H44.9482V78.3262H43.3802V81.4622C43.3802 81.6955 43.4362 81.8635 43.5482 81.9662C43.6602 82.0689 43.8469 82.1202 44.1082 82.1202H44.9622ZM53.6597 80.1182C53.6597 80.3422 53.6457 80.5755 53.6177 80.8182H48.1997C48.2371 81.3035 48.3911 81.6769 48.6617 81.9382C48.9417 82.1902 49.2824 82.3162 49.6837 82.3162C50.2811 82.3162 50.6964 82.0642 50.9297 81.5602H53.4777C53.3471 82.0735 53.1091 82.5355 52.7637 82.9462C52.4277 83.3569 52.0031 83.6789 51.4897 83.9122C50.9764 84.1455 50.4024 84.2622 49.7677 84.2622C49.0024 84.2622 48.3211 84.0989 47.7237 83.7722C47.1264 83.4455 46.6597 82.9789 46.3237 82.3722C45.9877 81.7655 45.8197 81.0562 45.8197 80.2442C45.8197 79.4322 45.9831 78.7229 46.3097 78.1162C46.6457 77.5095 47.1124 77.0429 47.7097 76.7162C48.3071 76.3895 48.9931 76.2262 49.7677 76.2262C50.5237 76.2262 51.1957 76.3849 51.7837 76.7022C52.3717 77.0195 52.8291 77.4722 53.1557 78.0602C53.4917 78.6482 53.6597 79.3342 53.6597 80.1182ZM51.2097 79.4882C51.2097 79.0775 51.0697 78.7509 50.7897 78.5082C50.5097 78.2655 50.1597 78.1442 49.7397 78.1442C49.3384 78.1442 48.9977 78.2609 48.7177 78.4942C48.4471 78.7275 48.2791 79.0589 48.2137 79.4882H51.2097ZM57.3167 77.6402C57.5967 77.2109 57.9467 76.8749 58.3667 76.6322C58.7867 76.3802 59.2534 76.2542 59.7667 76.2542V78.7882H59.1087C58.5114 78.7882 58.0634 78.9189 57.7647 79.1802C57.466 79.4322 57.3167 79.8802 57.3167 80.5242V84.1502H54.9227V76.3382H57.3167V77.6402Z" fill="#333333"/>
<g clip-path="url(#clip0_242_1835)">
<path d="M0 67.4025C0 67.4886 0.068695 67.5578 0.154238 67.5578H67.8458C67.9313 67.5578 68 67.4886 68 67.4025C68 67.3164 67.9313 67.2472 67.8458 67.2472H0.154238C0.068694 67.2472 0 67.3164 0 67.4025Z" fill="#3F3C57"/>
<path d="M22.0858 15.2702L22.8219 18.6521L21.2561 23.3593L18.7335 18.3018L19.0835 15.3677L22.0858 15.2702Z" fill="#FDB4B4"/>
<path d="M22.9586 18.4769H18.603V23.7753H22.9586V18.4769Z" fill="#6AC8D2" fill-opacity="0.8"/>
<path d="M21.1676 16.9737C22.8104 16.9737 24.1421 15.6329 24.1421 13.9789C24.1421 12.325 22.8104 10.9842 21.1676 10.9842C19.5247 10.9842 18.193 12.325 18.193 13.9789C18.193 15.6329 19.5247 16.9737 21.1676 16.9737Z" fill="#FDB4B4"/>
<path d="M18.5783 16.2059C18.5783 16.2059 16.3611 12.0832 18.3602 10.0993C20.3593 8.11532 21.9641 9.42261 21.9641 9.42261L22.8805 9.38532C22.8805 9.38532 23.0716 10.1114 23.3798 9.71835C23.6879 9.32529 24.2448 10.7568 24.2448 10.7568C25.2785 12.6309 21.6953 13.0507 21.6953 13.0507C21.6953 13.0507 21.954 13.8805 21.691 14.0543C21.4281 14.2281 20.7254 14.8818 20.7254 14.8818L20.0964 15.3601L19.7227 14.7867C19.7227 14.7867 19.3323 14.4764 19.135 14.6068C18.9378 14.7371 19.2091 16.452 19.2091 16.452L18.5783 16.2059L18.5783 16.2059H18.5783H18.5783Z" fill="#2E2E41"/>
<path d="M15.0099 46.5357L13.8727 63.6149L16.6684 63.7103L20.3645 46.6788L15.0099 46.5357Z" fill="#2E2E41"/>
<path d="M21.7861 46.4403L20.6488 63.5195L23.4445 63.6149L27.1406 46.5834L21.7861 46.4403Z" fill="#2E2E41"/>
<path d="M14.3251 50.4378L15.8134 31.8362L13.5311 22.1499C13.3343 20.7101 14.2354 19.3476 15.6262 18.9761L17.8595 18.3796L18.848 17.3843L21.0964 22.3833L22.5007 17.3882L23.5958 18.19L26.8439 19.6328L26.8424 19.6665L26.3214 31.3675L27.4844 50.2722L27.4328 50.2729L14.3251 50.4378V50.4378V50.4378Z" fill="#E8E9EA"/>
<path d="M23.2651 63.4208L24.0746 65.8538C24.0746 65.8538 27.2416 66.2873 27.2909 67.2744C27.3402 68.2616 22.9867 67.6902 20.4375 67.8191C17.8884 67.9481 20.0104 65.1688 20.0104 65.1688L20.282 63.5717L23.2651 63.4208V63.4208Z" fill="#2E2E41"/>
<path d="M16.6541 63.2457L17.4636 65.6787C17.4636 65.6787 20.6306 66.1122 20.6799 67.0993C20.7292 68.0864 16.3758 67.515 13.8266 67.644C11.2774 67.773 13.3994 64.9937 13.3994 64.9937L13.671 63.3966L16.6541 63.2457H16.6541Z" fill="#2E2E41"/>
<path d="M12.7046 40.5587C12.6702 40.079 12.7505 39.598 12.9388 39.1559L12.3346 34.1661L14.7013 33.9461L15.0593 39.0314C15.2971 39.4483 15.4323 39.9165 15.4536 40.3969C15.5232 41.5984 14.9642 42.6081 14.205 42.6527C13.4458 42.6973 12.774 41.7598 12.7046 40.5587H12.7046L12.7046 40.5587L12.7046 40.5587V40.5587Z" fill="#FDB4B4"/>
<path d="M27.6946 41.2912C27.6655 40.8111 27.751 40.331 27.944 39.891L27.3939 34.8949L29.7629 34.7009L30.0657 39.7898C30.2991 40.2093 30.4292 40.679 30.4453 41.1595C30.5018 42.3617 29.932 43.3652 29.1723 43.4015C28.4127 43.4377 27.751 42.4929 27.6946 41.2912H27.6946L27.6946 41.2912V41.2912Z" fill="#FDB4B4"/>
<path d="M12.3248 38.5576L12.3168 38.5146L11.0834 31.8516L12.5408 21.0017C12.6709 20.033 13.53 19.3352 14.4988 19.4132C15.0047 19.454 15.4587 19.6956 15.7771 20.0936C16.0955 20.4916 16.2332 20.9896 16.165 21.496L15.0681 29.6333L15.7587 38.3369L12.3248 38.5576V38.5576Z" fill="#E8E9EA"/>
<path d="M26.9636 38.4013L24.4837 21.7355C24.3549 21.2468 24.4303 20.7354 24.6973 20.3008C24.9643 19.8663 25.3851 19.5699 25.8821 19.4664C26.8331 19.2684 27.7721 19.8537 28.0203 20.7986L30.4027 38.192L26.9636 38.4013V38.4013Z" fill="#E8E9EA"/>
<path d="M21.1692 23.9067C21.3373 23.9067 21.4736 23.7694 21.4736 23.6002C21.4736 23.4309 21.3373 23.2936 21.1692 23.2936C21.0011 23.2936 20.8647 23.4309 20.8647 23.6002C20.8647 23.7694 21.0011 23.9067 21.1692 23.9067Z" fill="#D6D7D8"/>
<path d="M21.1692 26.2275C21.3373 26.2275 21.4736 26.0902 21.4736 25.921C21.4736 25.7517 21.3373 25.6144 21.1692 25.6144C21.0011 25.6144 20.8647 25.7517 20.8647 25.921C20.8647 26.0902 21.0011 26.2275 21.1692 26.2275Z" fill="#D6D7D8"/>
<path d="M21.1692 28.5483C21.3373 28.5483 21.4736 28.411 21.4736 28.2418C21.4736 28.0725 21.3373 27.9352 21.1692 27.9352C21.0011 27.9352 20.8647 28.0725 20.8647 28.2418C20.8647 28.411 21.0011 28.5483 21.1692 28.5483Z" fill="#D6D7D8"/>
<path d="M21.1692 30.869C21.3373 30.869 21.4736 30.7318 21.4736 30.5625C21.4736 30.3932 21.3373 30.256 21.1692 30.256C21.0011 30.256 20.8647 30.3932 20.8647 30.5625C20.8647 30.7318 21.0011 30.869 21.1692 30.869Z" fill="#D6D7D8"/>
<path d="M21.1692 33.1898C21.3373 33.1898 21.4736 33.0526 21.4736 32.8833C21.4736 32.714 21.3373 32.5768 21.1692 32.5768C21.0011 32.5768 20.8647 32.714 20.8647 32.8833C20.8647 33.0526 21.0011 33.1898 21.1692 33.1898Z" fill="#D6D7D8"/>
<path d="M21.1692 35.5106C21.3373 35.5106 21.4736 35.3734 21.4736 35.2041C21.4736 35.0348 21.3373 34.8976 21.1692 34.8976C21.0011 34.8976 20.8647 35.0348 20.8647 35.2041C20.8647 35.3734 21.0011 35.5106 21.1692 35.5106Z" fill="#D6D7D8"/>
<path d="M21.1692 37.8314C21.3373 37.8314 21.4736 37.6941 21.4736 37.5248C21.4736 37.3556 21.3373 37.2183 21.1692 37.2183C21.0011 37.2183 20.8647 37.3556 20.8647 37.5248C20.8647 37.6941 21.0011 37.8314 21.1692 37.8314Z" fill="#D6D7D8"/>
<path d="M21.1692 40.1522C21.3373 40.1522 21.4736 40.0149 21.4736 39.8456C21.4736 39.6764 21.3373 39.5391 21.1692 39.5391C21.0011 39.5391 20.8647 39.6764 20.8647 39.8456C20.8647 40.0149 21.0011 40.1522 21.1692 40.1522Z" fill="#D6D7D8"/>
<path d="M21.1695 41.9474L15.4089 41.1745L15.298 41.1597L12.3539 34.3252L10.6006 30.2562H15.1674L21.1695 41.9474Z" fill="#6AC8D2" fill-opacity="0.8"/>
<path d="M44.2664 16.0138L47.9288 13.9938V19.7652H43.6931L44.2664 16.0138Z" fill="#2E2E41"/>
<path d="M48.7141 17.3005L49.0521 20.1339L46.616 25.0179L45.104 20.4722L45.8149 17.2064L48.7141 17.3005Z" fill="#FDB4B4"/>
<path d="M49.1781 20.3031H44.9719V25.4197H49.1781V20.3031Z" fill="#6AC8D2" fill-opacity="0.8"/>
<path d="M52.6479 47.399L53.7461 63.8922L51.0463 63.9843L47.4771 47.5373L52.6479 47.399Z" fill="#2E2E41"/>
<path d="M46.1043 47.3069L47.2025 63.8001L44.5027 63.8922L40.9335 47.4452L46.1043 47.3069Z" fill="#2E2E41"/>
<path d="M55.5002 50.8972L55.4359 50.897L38.2368 50.8404L38.2523 50.7791L42.6741 33.1408L41.5664 24.2394C41.3566 22.5526 42.2534 20.9583 43.7981 20.2722L44.3558 20.0246L45.4153 19.2489L46.7706 24.0704L48.9409 19.2451L49.897 20.2076L52.0532 20.7835C53.3972 21.1425 54.2679 22.459 54.0785 23.8458L54.0762 23.8554L50.7834 33.3149L55.5002 50.8972V50.8972Z" fill="#E8E9EA"/>
<path d="M44.676 63.7047L47.5567 63.8505L47.8191 65.3928C47.8191 65.3928 49.8683 68.0767 47.4065 67.9522C44.9448 67.8276 40.7408 68.3794 40.7884 67.4261C40.836 66.4729 43.8943 66.0543 43.8943 66.0543L44.676 63.7047L44.676 63.7047Z" fill="#2E2E41"/>
<path d="M51.0601 63.5356L53.9408 63.6814L54.2031 65.2237C54.2031 65.2237 56.2523 67.9076 53.7906 67.783C51.3289 67.6585 47.1248 68.2103 47.1724 67.257C47.22 66.3038 50.2783 65.8851 50.2783 65.8851L51.0601 63.5356V63.5356Z" fill="#2E2E41"/>
<path d="M53.6981 41.458H53.6981C53.631 42.6179 52.9823 43.5232 52.2491 43.4801C51.516 43.4371 50.9762 42.462 51.0434 41.3017C51.0639 40.8379 51.1945 40.3857 51.4242 39.9831L51.7699 35.0723L54.0553 35.2848L53.4719 40.1034C53.6537 40.5303 53.7312 40.9948 53.6981 41.458V41.458Z" fill="#FDB4B4"/>
<path d="M41.9533 41.0169H41.9533C41.8617 42.1751 41.194 43.0663 40.4619 43.0076C39.7298 42.9488 39.2108 41.9624 39.3025 40.8038C39.3328 40.3405 39.4729 39.8912 39.7111 39.4936L40.1605 34.5914L42.441 34.8527L41.7558 39.6577C41.9285 40.0884 41.9962 40.5545 41.9533 41.0169L41.9533 41.0169H41.9533Z" fill="#FDB4B4"/>
<path d="M54.0662 39.5274L50.7469 39.3141L50.7509 39.264L51.414 30.9075L50.3548 23.0497C50.2887 22.5602 50.4219 22.0788 50.7296 21.6941C51.0374 21.3094 51.4762 21.0759 51.9653 21.0364C52.9017 20.9621 53.7321 21.6356 53.8578 22.5719L55.2653 33.0497L55.2638 33.0576L54.0662 39.5274Z" fill="#E8E9EA"/>
<path d="M42.5058 39.2073L39.1813 39.0049L39.1886 38.9521L41.4811 22.2123C41.7222 21.2929 42.6302 20.7274 43.549 20.9187C44.0295 21.0187 44.4362 21.3051 44.6943 21.7252C44.9524 22.1453 45.0253 22.6396 44.8996 23.1171L42.5058 39.2073V39.2073Z" fill="#E8E9EA"/>
<path d="M46.7 25.5465C46.8624 25.5465 46.994 25.414 46.994 25.2505C46.994 25.0871 46.8624 24.9545 46.7 24.9545C46.5376 24.9545 46.406 25.0871 46.406 25.2505C46.406 25.414 46.5376 25.5465 46.7 25.5465Z" fill="#D6D7D8"/>
<path d="M46.7 27.7877C46.8624 27.7877 46.994 27.6552 46.994 27.4917C46.994 27.3282 46.8624 27.1957 46.7 27.1957C46.5376 27.1957 46.406 27.3282 46.406 27.4917C46.406 27.6552 46.5376 27.7877 46.7 27.7877Z" fill="#D6D7D8"/>
<path d="M46.7 30.0288C46.8624 30.0288 46.994 29.8963 46.994 29.7328C46.994 29.5694 46.8624 29.4368 46.7 29.4368C46.5376 29.4368 46.406 29.5694 46.406 29.7328C46.406 29.8963 46.5376 30.0288 46.7 30.0288Z" fill="#D6D7D8"/>
<path d="M46.7 32.27C46.8624 32.27 46.994 32.1375 46.994 31.974C46.994 31.8105 46.8624 31.678 46.7 31.678C46.5376 31.678 46.406 31.8105 46.406 31.974C46.406 32.1375 46.5376 32.27 46.7 32.27Z" fill="#D6D7D8"/>
<path d="M46.7 34.5111C46.8624 34.5111 46.994 34.3786 46.994 34.2151C46.994 34.0517 46.8624 33.9191 46.7 33.9191C46.5376 33.9191 46.406 34.0517 46.406 34.2151C46.406 34.3786 46.5376 34.5111 46.7 34.5111Z" fill="#D6D7D8"/>
<path d="M46.7 36.7523C46.8624 36.7523 46.994 36.6198 46.994 36.4563C46.994 36.2928 46.8624 36.1603 46.7 36.1603C46.5376 36.1603 46.406 36.2928 46.406 36.4563C46.406 36.6198 46.5376 36.7523 46.7 36.7523Z" fill="#D6D7D8"/>
<path d="M46.7 38.9934C46.8624 38.9934 46.994 38.8609 46.994 38.6974C46.994 38.534 46.8624 38.4014 46.7 38.4014C46.5376 38.4014 46.406 38.534 46.406 38.6974C46.406 38.8609 46.5376 38.9934 46.7 38.9934Z" fill="#D6D7D8"/>
<path d="M46.7 41.2346C46.8624 41.2346 46.994 41.1021 46.994 40.9386C46.994 40.7751 46.8624 40.6426 46.7 40.6426C46.5376 40.6426 46.406 40.7751 46.406 40.9386C46.406 41.1021 46.5376 41.2346 46.7 41.2346Z" fill="#D6D7D8"/>
<path d="M47.1463 18.7466C48.6651 18.7466 49.8963 17.507 49.8963 15.9779C49.8963 14.4489 48.6651 13.2093 47.1463 13.2093C45.6276 13.2093 44.3964 14.4489 44.3964 15.9779C44.3964 17.507 45.6276 18.7466 47.1463 18.7466Z" fill="#FDB4B4"/>
<path d="M48.5874 12.7459C48.7192 13.0157 48.5102 13.3528 48.2336 13.4662C47.9571 13.5796 47.6446 13.5337 47.3497 13.4865C47.0547 13.4392 46.7419 13.3945 46.4661 13.5099C46.1093 13.6593 45.9082 14.034 45.7349 14.3817C45.4113 15.0309 45.0878 15.68 44.7642 16.3292C44.6061 16.6463 44.4445 16.9778 44.4414 17.3326C44.4358 17.9839 44.9491 18.5045 45.2252 19.0935C45.5614 19.8107 45.5337 20.6896 45.1529 21.3839C44.7722 22.0782 44.0482 22.5701 43.2663 22.6658C43.0605 22.691 42.8428 22.6882 42.6578 22.5941C42.4728 22.5 42.3316 22.2945 42.3659 22.0887C42.4329 21.6862 43.0438 21.5922 43.156 21.2C43.2145 20.9953 43.1108 20.7767 42.971 20.6168C42.8311 20.4569 42.6543 20.3321 42.5209 20.1667C42.2134 19.7853 42.1929 19.1966 42.4732 18.7945C42.6379 18.5581 42.8927 18.3826 42.9991 18.1145C43.0899 17.886 43.0569 17.6291 43.0225 17.3855C42.9784 17.0724 42.9342 16.7594 42.8901 16.4463C42.8385 16.081 42.7878 15.7027 42.8896 15.3483C43.123 14.5361 44.0338 14.1547 44.568 13.5024C44.8162 13.1992 44.9831 12.8346 45.2378 12.537C45.6651 12.0374 46.3379 11.7618 46.9902 11.8191C47.6426 11.8764 48.2578 12.2651 48.5928 12.8316" fill="#2E2E41"/>
<path d="M48.1533 12.7971C48.0189 12.8455 47.9691 13.0217 48.0078 13.1599C48.0464 13.2982 48.1477 13.4081 48.2404 13.5173C49.2887 14.7525 49.5324 16.6209 48.8363 18.0867C48.6512 18.4766 48.4045 18.8435 48.3047 19.2638C48.232 19.5697 48.2359 19.9051 48.0674 20.1699C47.8958 20.4394 47.5558 20.62 47.5222 20.9384C47.5006 21.1427 47.6243 21.3411 47.7901 21.4609C47.9559 21.5806 48.1585 21.6354 48.3576 21.6801C48.8753 21.7963 49.4047 21.8597 49.9349 21.8691C50.1078 21.8721 50.2862 21.8684 50.4448 21.799C50.6034 21.7296 50.7388 21.5792 50.7406 21.4052C50.742 21.2683 50.6637 21.1421 50.6537 21.0057C50.6237 20.5968 51.1702 20.3793 51.2766 19.9836C51.3466 19.7234 51.2087 19.4557 51.0618 19.2304C50.9149 19.005 50.7473 18.7684 50.7509 18.4989C50.7543 18.2409 50.9152 18.0137 50.9777 17.7634C51.0641 17.4173 50.9579 17.0552 50.8526 16.7145C50.763 16.4247 50.6734 16.135 50.5839 15.8453C50.4887 15.5373 50.3935 15.2293 50.2983 14.9213C50.132 14.3836 49.9576 13.8303 49.5979 13.399C49.2382 12.9678 48.6422 12.6851 48.1109 12.8612" fill="#2E2E41"/>
<path d="M50.0271 23.5256L49.8387 23.4703C50.2313 22.1148 49.3846 19.5851 49.3761 19.5597L49.5619 19.4959C49.5978 19.602 50.4371 22.1107 50.0271 23.5256Z" fill="#3F3C57"/>
<path d="M49.9329 25.0826C50.3858 25.0826 50.753 24.713 50.753 24.257C50.753 23.8009 50.3858 23.4313 49.9329 23.4313C49.48 23.4313 49.1128 23.8009 49.1128 24.257C49.1128 24.713 49.48 25.0826 49.9329 25.0826Z" fill="#3F3C57"/>
<path d="M44.5443 27.1802H44.0469C43.9926 27.1802 43.9487 27.1359 43.9487 27.0813C43.9487 27.0267 43.9926 26.9825 44.0469 26.9825H44.5443C44.6814 26.9825 44.8101 26.9287 44.9069 26.831C45.0037 26.7334 45.0569 26.6036 45.0566 26.4657L45.0506 23.3814C45.0506 22.7114 44.5093 22.1664 43.844 22.1664C43.1786 22.1664 42.6373 22.7114 42.6373 23.3812L42.6433 26.2681C42.6439 26.5498 42.8719 26.7807 43.1517 26.7828L43.4931 26.7854C43.5472 26.7859 43.5909 26.8304 43.5905 26.8851C43.5901 26.9393 43.5462 26.9831 43.4923 26.9831H43.4915L43.1502 26.9805C42.7632 26.9775 42.4477 26.6581 42.447 26.2685L42.4409 23.3814C42.4409 22.6024 43.0703 21.9688 43.844 21.9688C44.6175 21.9688 45.2469 22.6024 45.2469 23.3812L45.2529 26.4653C45.2533 26.6562 45.1798 26.8356 45.0459 26.9707C44.912 27.1057 44.7338 27.1802 44.5443 27.1802Z" fill="#3F3C57"/>
<path d="M43.4924 27.2346C43.6845 27.2346 43.8403 27.0777 43.8403 26.8842C43.8403 26.6908 43.6845 26.5339 43.4924 26.5339C43.3002 26.5339 43.1444 26.6908 43.1444 26.8842C43.1444 27.0777 43.3002 27.2346 43.4924 27.2346Z" fill="#3F3C57"/>
<path d="M44.0469 27.4316C44.2391 27.4316 44.3949 27.2748 44.3949 27.0813C44.3949 26.8879 44.2391 26.731 44.0469 26.731C43.8548 26.731 43.699 26.8879 43.699 27.0813C43.699 27.2748 43.8548 27.4316 44.0469 27.4316Z" fill="#3F3C57"/>
<path d="M23.9604 22.0441L23.7719 21.9888C24.1646 20.6332 23.3274 18.0644 23.3188 18.039L23.5544 18.2178C23.5904 18.3239 24.3703 20.6292 23.9604 22.0441Z" fill="#3F3C57"/>
<path d="M17.3348 22.285L17.5233 22.2297C17.1306 20.8741 17.9773 18.3444 17.9859 18.319L17.7843 18.455C17.7483 18.5611 16.9249 20.87 17.3348 22.285H17.3348Z" fill="#3F3C57"/>
<path d="M23.8661 23.6011C24.3191 23.6011 24.6862 23.2315 24.6862 22.7754C24.6862 22.3194 24.3191 21.9498 23.8661 21.9498C23.4132 21.9498 23.046 22.3194 23.046 22.7754C23.046 23.2315 23.4132 23.6011 23.8661 23.6011Z" fill="#3F3C57"/>
<path d="M18.2092 27.3626H17.7118C17.6576 27.3626 17.6137 27.3183 17.6137 27.2638C17.6137 27.2092 17.6576 27.1649 17.7118 27.1649H18.2092C18.3463 27.1649 18.475 27.1112 18.5719 27.0135C18.6686 26.9159 18.7218 26.7861 18.7215 26.6482L18.7155 23.5638C18.7155 22.8938 18.1742 22.3489 17.5089 22.3489C16.8435 22.3489 16.3022 22.8938 16.3022 23.5636L16.3082 26.4506C16.3088 26.7322 16.5369 26.9631 16.8166 26.9653L17.158 26.9679C17.2122 26.9683 17.2558 27.0129 17.2554 27.0675C17.255 27.1218 17.2111 27.1655 17.1572 27.1655H17.1565L16.8151 27.1629C16.4281 27.16 16.1126 26.8405 16.1119 26.451L16.1058 23.5638C16.1058 22.7848 16.7352 22.1512 17.5089 22.1512C18.2824 22.1512 18.9118 22.7848 18.9118 23.5636L18.9179 26.6478C18.9182 26.8386 18.8447 27.0181 18.7108 27.1531C18.5769 27.2882 18.3987 27.3626 18.2092 27.3626Z" fill="#3F3C57"/>
<path d="M17.1573 27.417C17.3494 27.417 17.5052 27.2601 17.5052 27.0667C17.5052 26.8732 17.3494 26.7164 17.1573 26.7164C16.9651 26.7164 16.8093 26.8732 16.8093 27.0667C16.8093 27.2601 16.9651 27.417 17.1573 27.417Z" fill="#3F3C57"/>
<path d="M17.7118 27.6141C17.904 27.6141 18.0598 27.4572 18.0598 27.2638C18.0598 27.0703 17.904 26.9135 17.7118 26.9135C17.5197 26.9135 17.3639 27.0703 17.3639 27.2638C17.3639 27.4572 17.5197 27.6141 17.7118 27.6141Z" fill="#3F3C57"/>
</g>
<defs>
<clipPath id="clip0_242_1835">
<rect width="68" height="59" fill="white" transform="translate(0 9)"/>
</clipPath>
</defs>
</svg>
