<svg width="162" height="102" viewBox="0 0 162 102" fill="none" xmlns="http://www.w3.org/2000/svg">
<path d="M0 15C0 6.71573 6.71573 0 15 0H162V101H0V15Z" fill="white"/>
<path d="M0.5 15C0.5 6.99187 6.99187 0.5 15 0.5H161.5V100.5H0.5V15Z" stroke="#6AC8D2" stroke-opacity="0.8"/>
<mask id="path-3-inside-1_242_1978" fill="white">
<path fill-rule="evenodd" clip-rule="evenodd" d="M161.6 57.6591V101.245H121.26C116.49 96.1287 113.6 89.4368 113.6 82.1134C113.6 66.0345 127.529 53 144.711 53C150.937 53 156.736 54.7115 161.6 57.6591Z"/>
</mask>
<path fill-rule="evenodd" clip-rule="evenodd" d="M161.6 57.6591V101.245H121.26C116.49 96.1287 113.6 89.4368 113.6 82.1134C113.6 66.0345 127.529 53 144.711 53C150.937 53 156.736 54.7115 161.6 57.6591Z" fill="#FEC395"/>
<path d="M161.6 57.6591H162.6V57.0959L162.118 56.8039L161.6 57.6591ZM161.6 101.245V102.245H162.6V101.245H161.6ZM121.26 101.245L120.529 101.927L120.825 102.245H121.26V101.245ZM160.6 57.6591V101.245H162.6V57.6591H160.6ZM161.6 100.245H121.26V102.245H161.6V100.245ZM121.991 100.563C117.381 95.6184 114.6 89.1659 114.6 82.1134H112.6C112.6 89.7077 115.598 96.6389 120.529 101.927L121.991 100.563ZM114.6 82.1134C114.6 66.6483 128.018 54 144.711 54V52C127.04 52 112.6 65.4207 112.6 82.1134H114.6ZM144.711 54C150.753 54 156.373 55.6605 161.082 58.5143L162.118 56.8039C157.1 53.7625 151.122 52 144.711 52V54Z" fill="#6AC8D2" fill-opacity="0.8" mask="url(#path-3-inside-1_242_1978)"/>
<path d="M146.4 79.3902H134.4" stroke="#D00A0A" stroke-width="1.5" stroke-linecap="round" stroke-linejoin="round"/>
<path d="M141.56 75.0412L146.4 79.3899L141.56 83.7393" stroke="#D00A0A" stroke-width="1.5" stroke-linecap="round" stroke-linejoin="round"/>
<path d="M23.998 74.172V84H21.604V78.106L19.406 84H17.474L15.262 78.092V84H12.868V74.172H15.696L18.454 80.976L21.184 74.172H23.998ZM25.2436 80.08C25.2436 79.2773 25.3929 78.5727 25.6916 77.966C25.9996 77.3593 26.4149 76.8927 26.9376 76.566C27.4602 76.2393 28.0436 76.076 28.6876 76.076C29.2382 76.076 29.7189 76.188 30.1296 76.412C30.5496 76.636 30.8716 76.93 31.0956 77.294V76.188H33.4896V84H31.0956V82.894C30.8622 83.258 30.5356 83.552 30.1156 83.776C29.7049 84 29.2242 84.112 28.6736 84.112C28.0389 84.112 27.4602 83.9487 26.9376 83.622C26.4149 83.286 25.9996 82.8147 25.6916 82.208C25.3929 81.592 25.2436 80.8827 25.2436 80.08ZM31.0956 80.094C31.0956 79.4967 30.9276 79.0253 30.5916 78.68C30.2649 78.3347 29.8636 78.162 29.3876 78.162C28.9116 78.162 28.5056 78.3347 28.1696 78.68C27.8429 79.016 27.6796 79.4827 27.6796 80.08C27.6796 80.6773 27.8429 81.1533 28.1696 81.508C28.5056 81.8533 28.9116 82.026 29.3876 82.026C29.8636 82.026 30.2649 81.8533 30.5916 81.508C30.9276 81.1627 31.0956 80.6913 31.0956 80.094ZM39.5755 81.97V84H38.3575C37.4895 84 36.8128 83.79 36.3275 83.37C35.8422 82.9407 35.5995 82.2453 35.5995 81.284V78.176H34.6475V76.188H35.5995V74.284H37.9935V76.188H39.5615V78.176H37.9935V81.312C37.9935 81.5453 38.0495 81.7133 38.1615 81.816C38.2735 81.9187 38.4602 81.97 38.7215 81.97H39.5755ZM48.273 79.968C48.273 80.192 48.259 80.4253 48.231 80.668H42.813C42.8503 81.1533 43.0043 81.5267 43.275 81.788C43.555 82.04 43.8957 82.166 44.297 82.166C44.8943 82.166 45.3097 81.914 45.543 81.41H48.091C47.9603 81.9233 47.7223 82.3853 47.377 82.796C47.041 83.2067 46.6163 83.5287 46.103 83.762C45.5897 83.9953 45.0157 84.112 44.381 84.112C43.6157 84.112 42.9343 83.9487 42.337 83.622C41.7397 83.2953 41.273 82.8287 40.937 82.222C40.601 81.6153 40.433 80.906 40.433 80.094C40.433 79.282 40.5963 78.5727 40.923 77.966C41.259 77.3593 41.7257 76.8927 42.323 76.566C42.9203 76.2393 43.6063 76.076 44.381 76.076C45.137 76.076 45.809 76.2347 46.397 76.552C46.985 76.8693 47.4423 77.322 47.769 77.91C48.105 78.498 48.273 79.184 48.273 79.968ZM45.823 79.338C45.823 78.9273 45.683 78.6007 45.403 78.358C45.123 78.1153 44.773 77.994 44.353 77.994C43.9517 77.994 43.611 78.1107 43.331 78.344C43.0603 78.5773 42.8923 78.9087 42.827 79.338H45.823ZM59.504 76.104C60.4746 76.104 61.2446 76.398 61.814 76.986C62.3926 77.574 62.682 78.3907 62.682 79.436V84H60.302V79.758C60.302 79.254 60.1666 78.8667 59.896 78.596C59.6346 78.316 59.2706 78.176 58.804 78.176C58.3373 78.176 57.9686 78.316 57.698 78.596C57.4366 78.8667 57.306 79.254 57.306 79.758V84H54.926V79.758C54.926 79.254 54.7906 78.8667 54.52 78.596C54.2586 78.316 53.8946 78.176 53.428 78.176C52.9613 78.176 52.5926 78.316 52.322 78.596C52.0606 78.8667 51.93 79.254 51.93 79.758V84H49.536V76.188H51.93V77.168C52.1726 76.8413 52.49 76.5847 52.882 76.398C53.274 76.202 53.7173 76.104 54.212 76.104C54.8 76.104 55.3226 76.23 55.78 76.482C56.2466 76.734 56.6106 77.0933 56.872 77.56C57.1426 77.1307 57.5113 76.7807 57.978 76.51C58.4446 76.2393 58.9533 76.104 59.504 76.104ZM63.8803 80.08C63.8803 79.2773 64.0296 78.5727 64.3283 77.966C64.6363 77.3593 65.0516 76.8927 65.5743 76.566C66.0969 76.2393 66.6803 76.076 67.3243 76.076C67.8749 76.076 68.3556 76.188 68.7663 76.412C69.1863 76.636 69.5083 76.93 69.7323 77.294V76.188H72.1263V84H69.7323V82.894C69.4989 83.258 69.1723 83.552 68.7523 83.776C68.3416 84 67.8609 84.112 67.3103 84.112C66.6756 84.112 66.0969 83.9487 65.5743 83.622C65.0516 83.286 64.6363 82.8147 64.3283 82.208C64.0296 81.592 63.8803 80.8827 63.8803 80.08ZM69.7323 80.094C69.7323 79.4967 69.5643 79.0253 69.2283 78.68C68.9016 78.3347 68.5003 78.162 68.0243 78.162C67.5483 78.162 67.1423 78.3347 66.8063 78.68C66.4796 79.016 66.3163 79.4827 66.3163 80.08C66.3163 80.6773 66.4796 81.1533 66.8063 81.508C67.1423 81.8533 67.5483 82.026 68.0243 82.026C68.5003 82.026 68.9016 81.8533 69.2283 81.508C69.5643 81.1627 69.7323 80.6913 69.7323 80.094ZM78.2122 81.97V84H76.9942C76.1262 84 75.4496 83.79 74.9642 83.37C74.4789 82.9407 74.2362 82.2453 74.2362 81.284V78.176H73.2842V76.188H74.2362V74.284H76.6302V76.188H78.1982V78.176H76.6302V81.312C76.6302 81.5453 76.6862 81.7133 76.7982 81.816C76.9102 81.9187 77.0969 81.97 77.3582 81.97H78.2122ZM80.7497 75.376C80.3297 75.376 79.9844 75.2547 79.7137 75.012C79.4524 74.76 79.3217 74.452 79.3217 74.088C79.3217 73.7147 79.4524 73.4067 79.7137 73.164C79.9844 72.912 80.3297 72.786 80.7497 72.786C81.1604 72.786 81.4964 72.912 81.7577 73.164C82.0284 73.4067 82.1637 73.7147 82.1637 74.088C82.1637 74.452 82.0284 74.76 81.7577 75.012C81.4964 75.2547 81.1604 75.376 80.7497 75.376ZM81.9397 76.188V84H79.5457V76.188H81.9397ZM88.4486 84L86.0686 80.724V84H83.6746V73.64H86.0686V79.366L88.4346 76.188H91.3886L88.1406 80.108L91.4166 84H88.4486ZM91.8529 80.08C91.8529 79.2773 92.0023 78.5727 92.3009 77.966C92.6089 77.3593 93.0243 76.8927 93.5469 76.566C94.0696 76.2393 94.6529 76.076 95.2969 76.076C95.8476 76.076 96.3283 76.188 96.7389 76.412C97.1589 76.636 97.4809 76.93 97.7049 77.294V76.188H100.099V84H97.7049V82.894C97.4716 83.258 97.1449 83.552 96.7249 83.776C96.3143 84 95.8336 84.112 95.2829 84.112C94.6483 84.112 94.0696 83.9487 93.5469 83.622C93.0243 83.286 92.6089 82.8147 92.3009 82.208C92.0023 81.592 91.8529 80.8827 91.8529 80.08ZM97.7049 80.094C97.7049 79.4967 97.5369 79.0253 97.2009 78.68C96.8743 78.3347 96.4729 78.162 95.9969 78.162C95.5209 78.162 95.1149 78.3347 94.7789 78.68C94.4523 79.016 94.2889 79.4827 94.2889 80.08C94.2889 80.6773 94.4523 81.1533 94.7789 81.508C95.1149 81.8533 95.5209 82.026 95.9969 82.026C96.4729 82.026 96.8743 81.8533 97.2009 81.508C97.5369 81.1627 97.7049 80.6913 97.7049 80.094Z" fill="#333333"/>
<g clip-path="url(#clip0_242_1978)">
<path d="M63.1741 56.1825C63.1741 58.2907 51.7186 60 37.5871 60C23.4556 60 12 58.2907 12 56.1825C12 54.6899 17.7422 53.3969 26.1109 52.7697C29.5618 52.5102 33.461 52.3649 37.5871 52.3649C39.2832 52.3649 40.9406 52.3896 42.5435 52.4364C54.3029 52.7812 63.1741 54.3271 63.1741 56.1825Z" fill="#FEC395"/>
<path opacity="0.1" d="M34.2855 56.9624C39.7101 56.9624 44.1076 56.4294 44.1076 55.772C44.1076 55.1145 39.7101 54.5815 34.2855 54.5815C28.8609 54.5815 24.4634 55.1145 24.4634 55.772C24.4634 56.4294 28.8609 56.9624 34.2855 56.9624Z" fill="black"/>
<path d="M34.2443 56.634C39.3726 56.634 43.5299 52.2232 43.5299 46.7823C43.5299 41.3413 39.3726 36.9305 34.2443 36.9305C29.1159 36.9305 24.9586 41.3413 24.9586 46.7823C24.9586 52.2232 29.1159 56.634 34.2443 56.634Z" fill="#FEC395"/>
<path d="M37.1743 52.6112H31.3966V57.8655H37.1743V52.6112Z" fill="#3F3D56"/>
<path d="M44.7266 53.8837L44.3965 55.6899L46.5425 56.0183L47.9457 55.1973L47.8631 53.8837H44.7266Z" fill="#6AC8D2"/>
<path d="M33.9141 19.9773C33.9141 19.9773 33.7491 21.8656 33.3364 21.9477C32.9237 22.0298 34.2443 25.3137 34.2443 25.3137H36.2252L37.7935 24.9032L37.0506 23.0971C37.0506 23.0971 36.0601 21.7835 36.803 20.7162C37.5458 19.649 33.9141 19.9773 33.9141 19.9773Z" fill="#A0616A"/>
<path opacity="0.1" d="M33.9141 19.9773C33.9141 19.9773 33.7491 21.8656 33.3364 21.9477C32.9237 22.0298 34.2443 25.3137 34.2443 25.3137H36.2252L37.7935 24.9032L37.0506 23.0971C37.0506 23.0971 36.0601 21.7835 36.803 20.7162C37.5458 19.649 33.9141 19.9773 33.9141 19.9773Z" fill="black"/>
<path d="M29.7872 34.4265C29.7872 34.4265 27.6411 38.5314 29.3745 39.3524C31.1078 40.1734 31.5205 40.0913 31.5205 40.3376C31.5205 40.5839 31.1903 40.5018 31.3554 40.9123C31.5205 41.3227 31.0252 42.9647 31.5205 43.9499C32.0157 44.9351 31.8506 45.6739 31.8506 45.6739C31.8506 45.6739 31.8506 45.756 32.0157 46.0844C32.1808 46.4128 32.2633 46.6591 32.1808 46.8233C32.0982 46.9875 31.603 48.0548 32.0982 48.3011C32.5935 48.5474 35.1522 48.7115 35.3998 48.3011C35.6474 47.8906 35.1522 47.6443 35.3998 47.398C35.6474 47.1517 35.8125 47.0696 35.6474 46.9054C35.4823 46.7412 35.3173 44.6888 35.3173 44.6888C35.3173 44.6888 35.73 42.3079 35.5649 41.9795C35.3998 41.6511 35.1522 41.3227 35.3173 41.0765C35.4823 40.8302 35.6474 40.9123 35.73 40.5839C35.8125 40.2555 35.9776 39.5166 35.9776 39.5166L36.8855 39.4345L39.0315 39.845C39.0315 39.845 41.4251 42.4721 44.0664 43.2931C44.0664 43.2931 44.8092 44.032 45.0569 44.032C45.3045 44.032 45.3045 44.032 45.2219 44.1962C45.1394 44.3604 44.8918 44.3604 45.0569 44.5246C45.2219 44.6888 45.4696 44.4425 45.3045 44.6888C45.1394 44.9351 44.9743 44.9351 45.1394 45.0992C45.3045 45.2634 45.0569 46.1665 45.0569 46.2486C45.0569 46.3307 44.314 54.0479 44.5616 54.2121C44.8092 54.3763 48.2759 54.8689 48.5235 54.2121C48.7711 53.5553 48.3584 52.7343 48.3584 52.7343C48.3584 52.7343 49.5965 42.8826 49.2663 42.2258C48.9362 41.569 47.7806 38.6135 41.5902 36.7253C41.5902 36.7253 39.8569 36.3969 39.8569 36.1506C39.8569 35.9043 39.6918 34.3444 39.3617 34.2623C39.0315 34.1802 37.1331 34.0981 37.1331 34.0981L34.7395 34.837L31.4379 34.2623L29.7872 34.4265Z" fill="#2F2E41"/>
<path d="M32.676 48.2189L32.2633 49.6967C32.2633 49.6967 31.9332 52.0775 32.3459 52.6522C32.67 53.1036 33.2488 53.6563 34.3222 53.7533C34.6231 53.7808 34.9243 53.7053 35.1761 53.5393C35.4279 53.3733 35.6153 53.1269 35.7071 52.8406C35.7194 52.8063 35.7271 52.7706 35.73 52.7343C35.73 52.5701 35.4824 50.5998 35.4824 50.5998L35.0697 48.5473L34.9871 47.9727L32.676 48.2189Z" fill="#2F2E41"/>
<path d="M44.7267 55.2794C44.7267 55.2794 44.314 54.8689 44.2314 55.2794C44.1489 55.6899 43.8188 57.4139 44.3965 57.496C44.9743 57.5781 50.5044 58.3991 51.0822 58.0707C51.66 57.7423 52.733 57.2497 52.0726 57.0034C51.4123 56.7572 49.5139 56.0183 49.5139 56.0183C49.5139 56.0183 48.4409 54.6226 48.2759 54.5405C48.1108 54.4584 47.2028 54.6226 46.7902 54.951C46.3775 55.2794 44.7267 55.2794 44.7267 55.2794Z" fill="#2F2E41"/>
<path d="M35.895 21.7014C37.3081 21.7014 38.4537 20.5619 38.4537 19.1564C38.4537 17.7508 37.3081 16.6113 35.895 16.6113C34.4819 16.6113 33.3363 17.7508 33.3363 19.1564C33.3363 20.5619 34.4819 21.7014 35.895 21.7014Z" fill="#A0616A"/>
<path d="M35.6474 24.9032L34.657 23.8359L33.5591 21.7014C33.5591 21.7014 32.7586 21.4551 32.5935 21.8656C32.4284 22.2761 29.457 23.5896 29.457 23.5896C29.457 23.5896 30.1999 30.4859 29.8697 31.1426C29.5396 31.7994 28.9618 34.4265 29.457 34.6728C29.9523 34.9191 32.2633 34.6728 33.0062 35.0012C33.7491 35.3296 35.8951 35.3296 36.4728 34.9191C37.0506 34.5086 37.2157 34.1803 37.7935 34.4265C38.2853 34.6362 39.4352 27.4679 39.7663 25.3317C39.7942 25.1523 39.771 24.9687 39.6994 24.8017C39.6278 24.6347 39.5106 24.4909 39.3612 24.3867C38.6206 23.87 37.2867 22.9796 37.0506 23.0971C36.7205 23.2612 35.6474 24.9032 35.6474 24.9032Z" fill="#6AC8D2"/>
<path d="M39.1966 24.5748C39.3904 24.623 39.5648 24.7291 39.6962 24.8787C39.8277 25.0283 39.91 25.2144 39.9321 25.4119L40.5997 31.3889C40.5997 31.3889 38.949 34.9191 38.1236 32.5383C37.2982 30.1575 39.1966 24.5748 39.1966 24.5748Z" fill="#6AC8D2"/>
<path d="M39.0315 31.9636L40.8474 31.471C40.8474 31.471 41.1775 33.7697 41.5077 33.7697C41.8378 33.7697 40.3521 35.0833 39.6093 34.9191C38.8664 34.7549 37.7934 34.1802 37.7109 33.7697C37.6283 33.3593 38.4537 31.6352 38.4537 31.6352L39.0315 31.9636Z" fill="#6AC8D2"/>
<path d="M33.9635 20.2542C34.1375 19.8726 34.1072 19.4275 34.2511 19.0337C34.3281 18.8228 34.4531 18.6325 34.6163 18.4777C34.7795 18.3228 34.9765 18.2076 35.1919 18.1409C35.4073 18.0743 35.6352 18.0581 35.858 18.0937C36.0807 18.1292 36.2921 18.2154 36.4758 18.3457C36.6608 18.4769 36.8463 18.6613 37.0722 18.6362C37.3154 18.6092 37.5323 18.3394 37.7559 18.4383C38.0038 18.5479 37.9368 18.9897 38.1879 19.0918C38.3201 19.1455 38.4763 19.0628 38.5525 18.9427C38.6192 18.8165 38.6555 18.6767 38.6587 18.5342C38.6933 18.184 38.7246 17.8134 38.5719 17.496C38.5077 17.3885 38.4518 17.2762 38.4045 17.1603C38.3778 17.052 38.3671 16.9404 38.3727 16.829C38.3713 16.4175 38.3411 15.9882 38.1329 15.6325C37.9018 15.2379 37.4747 14.9855 37.029 14.8754C36.5834 14.7653 36.1166 14.7822 35.6591 14.8207C34.9027 14.8844 34.114 15.0209 33.5181 15.4886C33.4371 15.5474 33.3674 15.6203 33.3123 15.7036C33.26 15.8027 33.2231 15.909 33.2027 16.019C33.0739 16.5408 32.8807 17.0448 32.6276 17.5195C32.5059 17.7208 32.4063 17.9345 32.3308 18.157C32.2676 18.3832 32.2719 18.6409 32.4042 18.8352C32.5119 18.9935 32.684 19.0778 32.8193 19.2072C32.9533 19.3354 33.0161 19.5819 33.1645 19.679C33.2941 19.7637 33.4494 19.7039 33.5816 19.7937C33.7513 19.909 33.7636 20.1618 33.9635 20.2542Z" fill="#2F2E41"/>
<path d="M36.0601 26.1347L36.3077 25.6421C36.3077 25.6421 39.9394 26.7094 40.6822 27.6945C40.6822 27.6945 42.4981 26.5452 43.4886 26.7094L44.479 26.8736L41.4251 29.5828L37.5458 29.2544L36.0601 26.1347Z" fill="#F2F2F2"/>
<path d="M35.8951 25.6421L32.511 30.3217L37.3808 32.7025C37.3808 32.7025 37.836 32.9488 38.1862 32.7025L41.4252 31.2247L44.4791 26.8736L41.4252 28.4334C41.4252 28.4334 41.095 27.7766 40.4347 28.105L35.8951 25.6421Z" fill="#3F3D56"/>
<path d="M41.0949 33.9339L41.7553 32.2099C41.7553 32.2099 43.241 30.3216 42.4156 29.4186C41.5902 28.5155 40.6823 32.0457 40.6823 32.0457L41.0949 33.9339Z" fill="#A0616A"/>
<path d="M33.4764 33.6588L34.9173 32.497C34.9173 32.497 37.1549 31.605 36.8964 30.4119C36.638 29.2188 34.0719 31.8195 34.0719 31.8195L33.4764 33.6588Z" fill="#A0616A"/>
<path opacity="0.1" d="M29.911 25.3548H29.8284C29.8284 25.3548 28.5491 23.8359 28.3014 25.8884C28.0538 27.9408 27.2284 34.7549 29.3744 35.0012C31.5205 35.2475 33.0474 33.975 33.0474 33.975C33.0474 33.975 34.6157 31.5942 34.0379 31.5942C33.7583 31.5942 32.998 31.4693 32.3046 31.5121C31.5648 31.5577 30.9001 31.765 30.9427 31.5531C31.0252 31.1426 32.222 25.9294 29.911 25.3548Z" fill="black"/>
<path d="M29.7871 23.7539L29.457 23.5897C29.457 23.5897 28.1363 23.836 27.8887 25.8884C27.6411 27.9408 26.8157 34.755 28.9617 35.0013C31.1077 35.2475 33.9966 34.6729 33.9966 34.6729C33.9966 34.6729 34.5744 31.5531 33.9966 31.5531C33.4188 31.5531 30.4474 31.9636 30.53 31.5531C30.6125 31.1427 32.0982 24.3285 29.7871 23.7539Z" fill="#6AC8D2"/>
<path d="M39.8982 32.9899L40.8084 31.6024L41.3839 33.893L39.8982 34.5497V32.9899Z" fill="#6AC8D2"/>
<path d="M21.2008 13.2043C22.4316 13.2043 23.4294 12.2119 23.4294 10.9876C23.4294 9.76342 22.4316 8.771 21.2008 8.771C19.97 8.771 18.9723 9.76342 18.9723 10.9876C18.9723 12.2119 19.97 13.2043 21.2008 13.2043Z" fill="#F2F2F2"/>
<path d="M23.8421 27.4893H18.5596V32.7435H23.8421V27.4893Z" fill="#F2F2F2"/>
<path d="M42.7045 4L44.0416 6.30342L45.3785 8.60683H42.7045H40.0305L41.3675 6.30342L42.7045 4Z" fill="#F2F2F2"/>
<path d="M66 17.8113C65.9681 18.794 65.7275 19.5817 65.2782 20.1743C64.8289 20.767 64.2951 21.0634 63.6768 21.0635C63.1733 21.0635 62.7319 20.7734 62.3527 20.1933C61.9734 19.6133 61.7838 18.721 61.7839 17.5165C61.7839 17.2502 61.7902 16.9966 61.803 16.7557C61.8157 16.5149 61.8316 16.2866 61.8508 16.071L62.1854 12.9425H59.9769C59.5945 16.8984 59.2806 19.2519 59.0352 20.0032C58.7898 20.7544 58.3739 21.13 57.7876 21.13C57.5229 21.1236 57.2704 21.0183 57.0801 20.8352C56.9698 20.738 56.8825 20.6176 56.8247 20.4828C56.7668 20.3479 56.7398 20.202 56.7455 20.0555C56.7455 19.764 56.9765 19.3566 57.4386 18.8335C57.9007 18.3105 58.1572 17.8334 58.2082 17.4024L58.7819 12.9425H57.8545C57.5931 12.944 57.3358 13.0076 57.104 13.1279C56.8907 13.2253 56.7051 13.374 56.5638 13.5606L56.1527 14.1692H55.8181C56.1303 13.2056 56.5144 12.4813 56.9702 11.9963C57.4258 11.5113 57.95 11.2688 58.5429 11.2688H65.8471V12.9425H63.3805C63.304 13.7032 63.245 14.464 63.2036 15.2247C63.1621 15.9854 63.1414 16.7494 63.1415 17.5165C63.1415 18.0364 63.2626 18.4579 63.5048 18.7812C63.7469 19.1045 64.0497 19.2662 64.413 19.2662C64.636 19.2662 64.8703 19.1758 65.1157 18.9951C65.2322 18.9138 65.3297 18.8084 65.4015 18.6862C65.4733 18.5639 65.5177 18.4276 65.5316 18.2867C65.5507 18.1473 65.565 18.038 65.5746 17.9586C65.5842 17.8794 65.5889 17.8303 65.589 17.8112L66 17.8113Z" fill="#3F3D56"/>
<path opacity="0.1" d="M66 17.8113C65.9681 18.794 65.7275 19.5817 65.2782 20.1743C64.8289 20.767 64.2951 21.0634 63.6768 21.0635C63.1733 21.0635 62.7319 20.7734 62.3527 20.1933C61.9734 19.6133 61.7838 18.721 61.7839 17.5165C61.7839 17.2502 61.7902 16.9966 61.803 16.7557C61.8157 16.5149 61.8316 16.2866 61.8508 16.071L62.1854 12.9425H59.9769C59.5945 16.8984 59.2806 19.2519 59.0352 20.0032C58.7898 20.7544 58.3739 21.13 57.7876 21.13C57.5229 21.1236 57.2704 21.0183 57.0801 20.8352C56.9698 20.738 56.8825 20.6176 56.8247 20.4828C56.7668 20.3479 56.7398 20.202 56.7455 20.0555C56.7455 19.764 56.9765 19.3566 57.4386 18.8335C57.9007 18.3105 58.1572 17.8334 58.2082 17.4024L58.7819 12.9425H57.8545C57.5931 12.944 57.3358 13.0076 57.104 13.1279C56.8907 13.2253 56.7051 13.374 56.5638 13.5606L56.1527 14.1692H55.8181C56.1303 13.2056 56.5144 12.4813 56.9702 11.9963C57.4258 11.5113 57.95 11.2688 58.5429 11.2688H65.8471V12.9425H63.3805C63.304 13.7032 63.245 14.464 63.2036 15.2247C63.1621 15.9854 63.1414 16.7494 63.1415 17.5165C63.1415 18.0364 63.2626 18.4579 63.5048 18.7812C63.7469 19.1045 64.0497 19.2662 64.413 19.2662C64.636 19.2662 64.8703 19.1758 65.1157 18.9951C65.2322 18.9138 65.3297 18.8084 65.4015 18.6862C65.4733 18.5639 65.5177 18.4276 65.5316 18.2867C65.5507 18.1473 65.565 18.038 65.5746 17.9586C65.5842 17.8794 65.5889 17.8303 65.589 17.8112L66 17.8113Z" fill="black"/>
<path d="M66 17.5141C65.9681 18.4969 65.7275 19.2846 65.2782 19.8772C64.8289 20.4699 64.2951 20.7663 63.6768 20.7663C63.1733 20.7663 62.7319 20.4763 62.3527 19.8962C61.9734 19.3161 61.7838 18.4239 61.7839 17.2193C61.7839 16.9531 61.7902 16.6995 61.803 16.4586C61.8157 16.2177 61.8316 15.9895 61.8508 15.7739L62.1854 12.6453H59.9769C59.5945 16.6012 59.2806 18.9548 59.0352 19.706C58.7898 20.4573 58.3739 20.8329 57.7876 20.8329C57.5229 20.8264 57.2704 20.7212 57.0801 20.5381C56.9698 20.4409 56.8825 20.3205 56.8247 20.1856C56.7668 20.0508 56.7398 19.9048 56.7455 19.7583C56.7455 19.4668 56.9765 19.0595 57.4386 18.5364C57.9007 18.0134 58.1572 17.5363 58.2082 17.1052L58.7819 12.6453H57.8545C57.5931 12.6469 57.3358 12.7105 57.104 12.8308C56.8907 12.9282 56.7051 13.0769 56.5638 13.2634L56.1527 13.872H55.8181C56.1303 12.9085 56.5144 12.1842 56.9702 11.6991C57.4258 11.2142 57.95 10.9717 58.5429 10.9717H65.8471V12.6453H63.3805C63.304 13.4061 63.245 14.1668 63.2036 14.9276C63.1621 15.6883 63.1414 16.4522 63.1415 17.2193C63.1415 17.7392 63.2626 18.1608 63.5048 18.4841C63.7469 18.8074 64.0497 18.9691 64.413 18.9691C64.636 18.9691 64.8703 18.8787 65.1157 18.698C65.2322 18.6167 65.3297 18.5113 65.4015 18.389C65.4733 18.2668 65.5177 18.1305 65.5316 17.9896C65.5507 17.8502 65.565 17.7409 65.5746 17.6615C65.5842 17.5823 65.5889 17.5332 65.589 17.5141H66Z" fill="#3F3D56"/>
</g>
<defs>
<clipPath id="clip0_242_1978">
<rect width="54" height="56" fill="white" transform="translate(12 4)"/>
</clipPath>
</defs>
</svg>
