<svg width="162" height="102" viewBox="0 0 162 102" fill="none" xmlns="http://www.w3.org/2000/svg">
<path d="M0 15C0 6.71573 6.71573 0 15 0H162V101H0V15Z" fill="white"/>
<path d="M0.5 15C0.5 6.99187 6.99187 0.5 15 0.5H161.5V100.5H0.5V15Z" stroke="#6AC8D2" stroke-opacity="0.8"/>
<mask id="path-3-inside-1_242_1909" fill="white">
<path fill-rule="evenodd" clip-rule="evenodd" d="M161.6 57.6591V101.245H121.26C116.49 96.1287 113.6 89.4368 113.6 82.1134C113.6 66.0345 127.529 53 144.711 53C150.937 53 156.736 54.7115 161.6 57.6591Z"/>
</mask>
<path fill-rule="evenodd" clip-rule="evenodd" d="M161.6 57.6591V101.245H121.26C116.49 96.1287 113.6 89.4368 113.6 82.1134C113.6 66.0345 127.529 53 144.711 53C150.937 53 156.736 54.7115 161.6 57.6591Z" fill="#FEC395"/>
<path d="M161.6 57.6591H162.6V57.0959L162.118 56.8039L161.6 57.6591ZM161.6 101.245V102.245H162.6V101.245H161.6ZM121.26 101.245L120.529 101.927L120.825 102.245H121.26V101.245ZM160.6 57.6591V101.245H162.6V57.6591H160.6ZM161.6 100.245H121.26V102.245H161.6V100.245ZM121.991 100.563C117.381 95.6184 114.6 89.1659 114.6 82.1134H112.6C112.6 89.7077 115.598 96.6389 120.529 101.927L121.991 100.563ZM114.6 82.1134C114.6 66.6483 128.018 54 144.711 54V52C127.04 52 112.6 65.4207 112.6 82.1134H114.6ZM144.711 54C150.753 54 156.373 55.6605 161.082 58.5143L162.118 56.8039C157.1 53.7625 151.122 52 144.711 52V54Z" fill="#6AC8D2" fill-opacity="0.8" mask="url(#path-3-inside-1_242_1909)"/>
<path d="M146.4 79.3902H134.4" stroke="#D00A0A" stroke-width="1.5" stroke-linecap="round" stroke-linejoin="round"/>
<path d="M141.56 75.0412L146.4 79.3899L141.56 83.7393" stroke="#D00A0A" stroke-width="1.5" stroke-linecap="round" stroke-linejoin="round"/>
<path d="M20.358 77.336C20.358 77.9053 20.2273 78.428 19.966 78.904C19.7047 79.3707 19.3033 79.7487 18.762 80.038C18.2207 80.3273 17.5487 80.472 16.746 80.472H15.262V84H12.868V74.172H16.746C17.53 74.172 18.1927 74.3073 18.734 74.578C19.2753 74.8487 19.6813 75.222 19.952 75.698C20.2227 76.174 20.358 76.72 20.358 77.336ZM16.564 78.568C17.0213 78.568 17.362 78.4607 17.586 78.246C17.81 78.0313 17.922 77.728 17.922 77.336C17.922 76.944 17.81 76.6407 17.586 76.426C17.362 76.2113 17.0213 76.104 16.564 76.104H15.262V78.568H16.564ZM23.9983 77.49C24.2783 77.0607 24.6283 76.7247 25.0483 76.482C25.4683 76.23 25.935 76.104 26.4483 76.104V78.638H25.7903C25.193 78.638 24.745 78.7687 24.4463 79.03C24.1477 79.282 23.9983 79.73 23.9983 80.374V84H21.6043V76.188H23.9983V77.49ZM31.1486 84.112C30.3833 84.112 29.6926 83.9487 29.0766 83.622C28.4699 83.2953 27.9893 82.8287 27.6346 82.222C27.2893 81.6153 27.1166 80.906 27.1166 80.094C27.1166 79.2913 27.2939 78.5867 27.6486 77.98C28.0033 77.364 28.4886 76.8927 29.1046 76.566C29.7206 76.2393 30.4113 76.076 31.1766 76.076C31.9419 76.076 32.6326 76.2393 33.2486 76.566C33.8646 76.8927 34.3499 77.364 34.7046 77.98C35.0593 78.5867 35.2366 79.2913 35.2366 80.094C35.2366 80.8967 35.0546 81.606 34.6906 82.222C34.3359 82.8287 33.8459 83.2953 33.2206 83.622C32.6046 83.9487 31.9139 84.112 31.1486 84.112ZM31.1486 82.04C31.6059 82.04 31.9933 81.872 32.3106 81.536C32.6373 81.2 32.8006 80.7193 32.8006 80.094C32.8006 79.4687 32.6419 78.988 32.3246 78.652C32.0166 78.316 31.6339 78.148 31.1766 78.148C30.7099 78.148 30.3226 78.316 30.0146 78.652C29.7066 78.9787 29.5526 79.4593 29.5526 80.094C29.5526 80.7193 29.7019 81.2 30.0006 81.536C30.3086 81.872 30.6913 82.04 31.1486 82.04ZM39.4747 76.076C40.0253 76.076 40.506 76.188 40.9167 76.412C41.3367 76.636 41.6587 76.93 41.8827 77.294V76.188H44.2767V83.986C44.2767 84.7047 44.132 85.3533 43.8427 85.932C43.5627 86.52 43.1287 86.9867 42.5407 87.332C41.962 87.6773 41.2387 87.85 40.3707 87.85C39.2133 87.85 38.2753 87.5747 37.5567 87.024C36.838 86.4827 36.4273 85.7453 36.3247 84.812H38.6907C38.7653 85.1107 38.9427 85.344 39.2227 85.512C39.5027 85.6893 39.848 85.778 40.2587 85.778C40.7533 85.778 41.1453 85.6333 41.4347 85.344C41.7333 85.064 41.8827 84.6113 41.8827 83.986V82.88C41.6493 83.244 41.3273 83.5427 40.9167 83.776C40.506 84 40.0253 84.112 39.4747 84.112C38.8307 84.112 38.2473 83.9487 37.7247 83.622C37.202 83.286 36.7867 82.8147 36.4787 82.208C36.18 81.592 36.0307 80.8827 36.0307 80.08C36.0307 79.2773 36.18 78.5727 36.4787 77.966C36.7867 77.3593 37.202 76.8927 37.7247 76.566C38.2473 76.2393 38.8307 76.076 39.4747 76.076ZM41.8827 80.094C41.8827 79.4967 41.7147 79.0253 41.3787 78.68C41.052 78.3347 40.6507 78.162 40.1747 78.162C39.6987 78.162 39.2927 78.3347 38.9567 78.68C38.63 79.016 38.4667 79.4827 38.4667 80.08C38.4667 80.6773 38.63 81.1533 38.9567 81.508C39.2927 81.8533 39.6987 82.026 40.1747 82.026C40.6507 82.026 41.052 81.8533 41.3787 81.508C41.7147 81.1627 41.8827 80.6913 41.8827 80.094ZM48.4026 77.49C48.6826 77.0607 49.0326 76.7247 49.4526 76.482C49.8726 76.23 50.3393 76.104 50.8526 76.104V78.638H50.1946C49.5973 78.638 49.1493 78.7687 48.8506 79.03C48.552 79.282 48.4026 79.73 48.4026 80.374V84H46.0086V76.188H48.4026V77.49ZM51.5209 80.08C51.5209 79.2773 51.6702 78.5727 51.9689 77.966C52.2769 77.3593 52.6922 76.8927 53.2149 76.566C53.7376 76.2393 54.3209 76.076 54.9649 76.076C55.5156 76.076 55.9962 76.188 56.4069 76.412C56.8269 76.636 57.1489 76.93 57.3729 77.294V76.188H59.7669V84H57.3729V82.894C57.1396 83.258 56.8129 83.552 56.3929 83.776C55.9822 84 55.5016 84.112 54.9509 84.112C54.3162 84.112 53.7376 83.9487 53.2149 83.622C52.6922 83.286 52.2769 82.8147 51.9689 82.208C51.6702 81.592 51.5209 80.8827 51.5209 80.08ZM57.3729 80.094C57.3729 79.4967 57.2049 79.0253 56.8689 78.68C56.5422 78.3347 56.1409 78.162 55.6649 78.162C55.1889 78.162 54.7829 78.3347 54.4469 78.68C54.1202 79.016 53.9569 79.4827 53.9569 80.08C53.9569 80.6773 54.1202 81.1533 54.4469 81.508C54.7829 81.8533 55.1889 82.026 55.6649 82.026C56.1409 82.026 56.5422 81.8533 56.8689 81.508C57.2049 81.1627 57.3729 80.6913 57.3729 80.094ZM71.4669 76.104C72.4375 76.104 73.2075 76.398 73.7769 76.986C74.3555 77.574 74.6449 78.3907 74.6449 79.436V84H72.2649V79.758C72.2649 79.254 72.1295 78.8667 71.8589 78.596C71.5975 78.316 71.2335 78.176 70.7669 78.176C70.3002 78.176 69.9315 78.316 69.6609 78.596C69.3995 78.8667 69.2689 79.254 69.2689 79.758V84H66.8889V79.758C66.8889 79.254 66.7535 78.8667 66.4829 78.596C66.2215 78.316 65.8575 78.176 65.3909 78.176C64.9242 78.176 64.5555 78.316 64.2849 78.596C64.0235 78.8667 63.8929 79.254 63.8929 79.758V84H61.4989V76.188H63.8929V77.168C64.1355 76.8413 64.4529 76.5847 64.8449 76.398C65.2369 76.202 65.6802 76.104 66.1749 76.104C66.7629 76.104 67.2855 76.23 67.7429 76.482C68.2095 76.734 68.5735 77.0933 68.8349 77.56C69.1055 77.1307 69.4742 76.7807 69.9409 76.51C70.4075 76.2393 70.9162 76.104 71.4669 76.104ZM86.2872 76.104C87.2578 76.104 88.0278 76.398 88.5972 76.986C89.1758 77.574 89.4652 78.3907 89.4652 79.436V84H87.0852V79.758C87.0852 79.254 86.9498 78.8667 86.6792 78.596C86.4178 78.316 86.0538 78.176 85.5872 78.176C85.1205 78.176 84.7518 78.316 84.4812 78.596C84.2198 78.8667 84.0892 79.254 84.0892 79.758V84H81.7092V79.758C81.7092 79.254 81.5738 78.8667 81.3032 78.596C81.0418 78.316 80.6778 78.176 80.2112 78.176C79.7445 78.176 79.3758 78.316 79.1052 78.596C78.8438 78.8667 78.7132 79.254 78.7132 79.758V84H76.3192V76.188H78.7132V77.168C78.9558 76.8413 79.2732 76.5847 79.6652 76.398C80.0572 76.202 80.5005 76.104 80.9952 76.104C81.5832 76.104 82.1058 76.23 82.5632 76.482C83.0298 76.734 83.3938 77.0933 83.6552 77.56C83.9258 77.1307 84.2945 76.7807 84.7612 76.51C85.2278 76.2393 85.7365 76.104 86.2872 76.104ZM98.5035 79.968C98.5035 80.192 98.4895 80.4253 98.4615 80.668H93.0435C93.0808 81.1533 93.2348 81.5267 93.5055 81.788C93.7855 82.04 94.1262 82.166 94.5275 82.166C95.1248 82.166 95.5402 81.914 95.7735 81.41H98.3215C98.1908 81.9233 97.9528 82.3853 97.6075 82.796C97.2715 83.2067 96.8468 83.5287 96.3335 83.762C95.8202 83.9953 95.2462 84.112 94.6115 84.112C93.8462 84.112 93.1648 83.9487 92.5675 83.622C91.9702 83.2953 91.5035 82.8287 91.1675 82.222C90.8315 81.6153 90.6635 80.906 90.6635 80.094C90.6635 79.282 90.8268 78.5727 91.1535 77.966C91.4895 77.3593 91.9562 76.8927 92.5535 76.566C93.1508 76.2393 93.8368 76.076 94.6115 76.076C95.3675 76.076 96.0395 76.2347 96.6275 76.552C97.2155 76.8693 97.6728 77.322 97.9995 77.91C98.3355 78.498 98.5035 79.184 98.5035 79.968ZM96.0535 79.338C96.0535 78.9273 95.9135 78.6007 95.6335 78.358C95.3535 78.1153 95.0035 77.994 94.5835 77.994C94.1822 77.994 93.8415 78.1107 93.5615 78.344C93.2908 78.5773 93.1228 78.9087 93.0575 79.338H96.0535ZM102.16 77.49C102.44 77.0607 102.79 76.7247 103.21 76.482C103.63 76.23 104.097 76.104 104.61 76.104V78.638H103.952C103.355 78.638 102.907 78.7687 102.608 79.03C102.31 79.282 102.16 79.73 102.16 80.374V84H99.7664V76.188H102.16V77.49Z" fill="#333333"/>
<g clip-path="url(#clip0_242_1909)">
<path d="M64 36C64.009 42.1374 61.8381 48.0785 57.8743 52.7642C57.7303 52.9351 57.5837 53.1033 57.4343 53.2707C55.6769 55.2472 53.6296 56.9456 51.3626 58.3078C50.8426 58.62 50.3112 58.9142 49.7684 59.1904C49.7135 59.2183 49.6577 59.2462 49.6028 59.2731C49.5372 59.3064 49.4706 59.3388 49.404 59.3712C48.0305 60.0435 46.5998 60.592 45.1289 61.0104C44.9759 61.0536 44.8227 61.0956 44.6691 61.1363C42.7342 61.6483 40.7466 61.9348 38.7458 61.9901C38.6415 61.9928 38.5389 61.9946 38.4399 61.9964C38.4048 61.9973 38.3707 61.9982 38.3365 61.9982C38.224 61.9991 38.1125 62 38 62C35.8916 62.0016 33.7908 61.7469 31.7438 61.2416C31.5387 61.1912 31.3345 61.1381 31.1311 61.0824C30.0602 60.79 29.0093 60.4284 27.9851 60.0001C27.4453 59.7752 26.9151 59.5325 26.3945 59.2722C26.2766 59.2129 26.1588 59.1535 26.0427 59.0923C25.9932 59.068 25.9446 59.0419 25.8961 59.0168C23.1214 57.5522 20.6331 55.6 18.5504 53.2536C18.4064 53.0925 18.2652 52.9288 18.1257 52.7642C15.831 50.0434 14.1192 46.8804 13.0965 43.4712C12.0738 40.062 11.7619 36.4791 12.1801 32.9444C12.5984 29.4098 13.7378 25.9986 15.528 22.9222C17.3181 19.8459 19.7207 17.1697 22.5871 15.0597C22.7347 14.9508 22.8831 14.8428 23.0334 14.7376C23.063 14.7169 23.0927 14.6962 23.1224 14.6755C25.7623 12.8264 28.7253 11.4883 31.8581 10.7305C32.0362 10.6864 32.2143 10.6451 32.3943 10.6064C35.7875 9.86412 39.2943 9.80266 42.7115 10.4255C42.8905 10.4588 43.0696 10.493 43.2477 10.5299C46.3524 11.1667 49.3136 12.3692 51.9833 14.0772C52.0427 14.115 52.1021 14.1528 52.1615 14.1924C52.2811 14.2698 52.4008 14.3489 52.5186 14.429C56.0552 16.8066 58.9524 20.018 60.9547 23.7798C62.957 27.5417 64.0028 31.7385 64 36Z" fill="#F2F2F2"/>
<path d="M31.4325 49.4507L23.1224 50.1884L23.0333 50.1965V14.7376C23.063 14.7169 23.0927 14.6962 23.1224 14.6755C24.8543 13.4641 26.7278 12.4689 28.7011 11.712L29.1258 17.5688L29.1645 18.105L29.5846 23.9131L29.7142 25.6999L31.4172 49.2438L31.4325 49.4507Z" fill="#FEC395"/>
<path d="M51.9833 14.0773C52.0427 14.115 52.1021 14.1528 52.1615 14.1924V50.1966L51.9833 50.1804L43.7632 49.4508L43.7785 49.2438L45.4815 25.6999L45.6111 23.9132L46.0312 18.105L46.0699 17.5688L46.5152 11.4269C48.4357 12.0926 50.271 12.9822 51.9833 14.0773Z" fill="#FEC395"/>
<path d="M51.9833 14.0772V50.6877C51.9833 51.3904 51.4993 51.9616 50.9038 51.9616H24.202C23.709 51.9616 23.2907 51.5694 23.1638 51.0341C23.1361 50.9207 23.1222 50.8044 23.1224 50.6877V14.6755C23.0928 14.6962 23.0631 14.7169 23.0334 14.7376C22.8831 14.8428 22.7347 14.9508 22.5871 15.0596V50.6877C22.5792 51.2214 22.7785 51.7374 23.1431 52.1272C23.3343 52.3275 23.5762 52.4724 23.8431 52.5464C23.9601 52.5782 24.0808 52.5943 24.202 52.5941H50.9038C51.0253 52.5942 51.1463 52.5782 51.2636 52.5464C51.9815 52.353 52.5186 51.5937 52.5186 50.6877V14.429C52.4008 14.3489 52.2811 14.2697 52.1615 14.1924C52.1021 14.1528 52.0427 14.115 51.9833 14.0772Z" fill="#FEC395"/>
<path d="M52.2511 17.5692H22.8547V18.1053H52.2511V17.5692Z" fill="#FEC395"/>
<path d="M31.858 10.7305C32.0362 10.6865 32.2143 10.6451 32.3942 10.6064V25.1637H31.858V10.7305Z" fill="#FEC395"/>
<path d="M42.7115 10.4255C42.8906 10.4588 43.0696 10.493 43.2477 10.5299V25.1637H42.7115V10.4255Z" fill="#FEC395"/>
<path d="M55.6017 49.2438H20.3974C19.7574 49.2438 19.1437 49.498 18.6912 49.9505C18.2387 50.403 17.9845 51.0168 17.9845 51.6567C17.9845 52.2966 18.2387 52.9104 18.6912 53.3629C19.1437 53.8154 19.7574 54.0696 20.3974 54.0696H55.6017C55.9444 54.0696 56.2831 53.9966 56.5953 53.8552C56.9074 53.7139 57.1858 53.5076 57.4118 53.25C57.5141 53.1336 57.6051 53.0076 57.6835 52.8739C57.7442 52.7714 57.7969 52.6643 57.841 52.5537C57.9879 52.1876 58.0429 51.7911 58.0009 51.3989C57.959 51.0066 57.8215 50.6307 57.6005 50.304C57.3794 49.9773 57.0816 49.7098 56.7331 49.525C56.3847 49.3401 55.9962 49.2436 55.6017 49.2438Z" fill="#FEC395"/>
<path d="M52.2511 23.913H23.0334V25.7H52.2511V23.913Z" fill="#FEC395"/>
<path d="M37.3743 23.377H37.9104C38.0395 23.377 38.1673 23.4024 38.2866 23.4518C38.4058 23.5012 38.5142 23.5736 38.6054 23.6648C38.6967 23.7561 38.7691 23.8644 38.8185 23.9837C38.8679 24.1029 38.8933 24.2307 38.8933 24.3598H36.3915C36.3915 24.0991 36.495 23.8491 36.6794 23.6648C36.8637 23.4805 37.1137 23.377 37.3743 23.377H37.3743Z" fill="#FEC395"/>
<path d="M57.8742 52.7642C57.0927 53.6902 56.2474 54.5605 55.3444 55.3687H20.6556C19.7526 54.5605 18.9073 53.6902 18.1257 52.7642H57.8742Z" fill="#3F3D56"/>
<path d="M40.904 43.7433H35.0635C35.032 43.743 35.0007 43.7478 34.9708 43.7577C34.9074 43.7773 34.852 43.8167 34.8126 43.8701C34.7733 43.9236 34.7521 43.9882 34.7522 44.0546V53.2814H41.2162V44.0546C41.2162 44.0136 41.2081 43.9731 41.1924 43.9353C41.1766 43.8975 41.1536 43.8631 41.1246 43.8342C41.0956 43.8053 41.0612 43.7824 41.0234 43.7668C40.9855 43.7512 40.945 43.7432 40.904 43.7433ZM38.6936 48.2955C38.6938 48.4452 38.6444 48.5907 38.5532 48.7094C38.4662 48.8246 38.3452 48.9095 38.2073 48.9523C38.0695 48.995 37.9217 48.9934 37.7847 48.9477C37.6478 48.902 37.5287 48.8145 37.4442 48.6975C37.3596 48.5805 37.3139 48.4399 37.3135 48.2955V47.225C37.3152 47.0431 37.3886 46.8692 37.5179 46.7412C37.6471 46.6131 37.8216 46.5413 38.0035 46.5413C38.1855 46.5413 38.36 46.6131 38.4892 46.7412C38.6184 46.8692 38.6919 47.0431 38.6936 47.225V48.2955Z" fill="#2F2E41"/>
<path d="M34.7324 52.9864V53.8761C34.7324 53.9223 34.7507 53.9665 34.7832 53.9993C34.8158 54.032 34.8599 54.0505 34.9061 54.0507H41.0624C41.1085 54.0503 41.1526 54.0318 41.1851 53.9991C41.2176 53.9664 41.2359 53.9222 41.236 53.8761V52.9864H34.7324Z" fill="#3F3D56"/>
<path d="M50.5754 29.3444H25.61C25.3955 29.3446 25.1898 29.4299 25.0381 29.5815C24.8863 29.7331 24.8008 29.9386 24.8003 30.1532V47.0001C24.8005 47.2148 24.8858 47.4206 25.0376 47.5724C25.1894 47.7242 25.3953 47.8096 25.61 47.8098H50.5754C50.7901 47.8096 50.9959 47.7242 51.1477 47.5724C51.2995 47.4206 51.3849 47.2148 51.3851 47.0001V30.1532C51.3846 29.9386 51.2991 29.7331 51.1473 29.5815C50.9955 29.4299 50.7899 29.3446 50.5754 29.3444Z" fill="#3F3D56"/>
<path d="M50.3666 29.9291H25.8177C25.7029 29.9294 25.5928 29.9752 25.5117 30.0565C25.4306 30.1378 25.385 30.2479 25.385 30.3628V46.7923C25.3852 46.907 25.4309 47.0169 25.512 47.098C25.5931 47.1791 25.703 47.2248 25.8177 47.225H50.3666C50.4813 47.2248 50.5913 47.1791 50.6724 47.098C50.7535 47.0169 50.7991 46.907 50.7993 46.7923V30.3628C50.7993 30.2479 50.7538 30.1378 50.6726 30.0565C50.5915 29.9752 50.4814 29.9294 50.3666 29.9291Z" fill="#6AC8D2"/>
<path d="M45.8485 54.0363L45.6218 52.9594C45.6124 52.9155 45.5922 52.8746 45.563 52.8405C45.5337 52.8064 45.4965 52.7802 45.4545 52.7641C45.4241 52.7522 45.3918 52.7461 45.3591 52.7462H31.2067C31.174 52.7461 31.1417 52.7522 31.1113 52.7641C31.0693 52.7802 31.0321 52.8064 31.0028 52.8405C30.9736 52.8746 30.9534 52.9155 30.944 52.9594L30.7173 54.0363C30.7091 54.0753 30.7097 54.1158 30.7191 54.1546C30.7285 54.1934 30.7464 54.2297 30.7716 54.2607C30.7967 54.2917 30.8285 54.3167 30.8645 54.3339C30.9006 54.3511 30.94 54.3601 30.98 54.3601H45.5849C45.625 54.3603 45.6646 54.3515 45.7008 54.3342C45.7369 54.3169 45.7687 54.2916 45.7937 54.2603C45.8189 54.2294 45.8369 54.1932 45.8464 54.1545C45.8559 54.1157 45.8566 54.0753 45.8485 54.0363Z" fill="#2F2E41"/>
<path d="M31.7163 52.9401H31.3543C31.3301 52.9401 31.3104 52.9598 31.3104 52.984V53.1661C31.3104 53.1904 31.3301 53.21 31.3543 53.21H31.7163C31.7406 53.21 31.7603 53.1904 31.7603 53.1661V52.984C31.7603 52.9598 31.7406 52.9401 31.7163 52.9401Z" fill="#3F3D56"/>
<path d="M32.616 52.9401H32.254C32.2297 52.9401 32.2101 52.9598 32.2101 52.984V53.1661C32.2101 53.1904 32.2297 53.21 32.254 53.21H32.616C32.6402 53.21 32.6599 53.1904 32.6599 53.1661V52.984C32.6599 52.9598 32.6402 52.9401 32.616 52.9401Z" fill="#3F3D56"/>
<path d="M33.5156 52.9401H33.1537C33.1294 52.9401 33.1097 52.9598 33.1097 52.984V53.1661C33.1097 53.1904 33.1294 53.21 33.1537 53.21H33.5156C33.5399 53.21 33.5596 53.1904 33.5596 53.1661V52.984C33.5596 52.9598 33.5399 52.9401 33.5156 52.9401Z" fill="#3F3D56"/>
<path d="M34.4153 52.9401H34.0533C34.0291 52.9401 34.0094 52.9598 34.0094 52.984V53.1661C34.0094 53.1904 34.0291 53.21 34.0533 53.21H34.4153C34.4396 53.21 34.4592 53.1904 34.4592 53.1661V52.984C34.4592 52.9598 34.4396 52.9401 34.4153 52.9401Z" fill="#3F3D56"/>
<path d="M35.315 52.9401H34.953C34.9287 52.9401 34.9091 52.9598 34.9091 52.984V53.1661C34.9091 53.1904 34.9287 53.21 34.953 53.21H35.315C35.3392 53.21 35.3589 53.1904 35.3589 53.1661V52.984C35.3589 52.9598 35.3392 52.9401 35.315 52.9401Z" fill="#3F3D56"/>
<path d="M36.2146 52.9401H35.8526C35.8284 52.9401 35.8087 52.9598 35.8087 52.984V53.1661C35.8087 53.1904 35.8284 53.21 35.8526 53.21H36.2146C36.2389 53.21 36.2585 53.1904 36.2585 53.1661V52.984C36.2585 52.9598 36.2389 52.9401 36.2146 52.9401Z" fill="#3F3D56"/>
<path d="M37.1143 52.9401H36.7523C36.728 52.9401 36.7084 52.9598 36.7084 52.984V53.1661C36.7084 53.1904 36.728 53.21 36.7523 53.21H37.1143C37.1385 53.21 37.1582 53.1904 37.1582 53.1661V52.984C37.1582 52.9598 37.1385 52.9401 37.1143 52.9401Z" fill="#3F3D56"/>
<path d="M38.0139 52.9401H37.652C37.6277 52.9401 37.608 52.9598 37.608 52.984V53.1661C37.608 53.1904 37.6277 53.21 37.652 53.21H38.0139C38.0382 53.21 38.0579 53.1904 38.0579 53.1661V52.984C38.0579 52.9598 38.0382 52.9401 38.0139 52.9401Z" fill="#3F3D56"/>
<path d="M38.9136 52.9401H38.5516C38.5274 52.9401 38.5077 52.9598 38.5077 52.984V53.1661C38.5077 53.1904 38.5274 53.21 38.5516 53.21H38.9136C38.9379 53.21 38.9575 53.1904 38.9575 53.1661V52.984C38.9575 52.9598 38.9379 52.9401 38.9136 52.9401Z" fill="#3F3D56"/>
<path d="M39.8133 52.9401H39.4513C39.427 52.9401 39.4073 52.9598 39.4073 52.984V53.1661C39.4073 53.1904 39.427 53.21 39.4513 53.21H39.8133C39.8375 53.21 39.8572 53.1904 39.8572 53.1661V52.984C39.8572 52.9598 39.8375 52.9401 39.8133 52.9401Z" fill="#3F3D56"/>
<path d="M40.7129 52.9401H40.3509C40.3267 52.9401 40.307 52.9598 40.307 52.984V53.1661C40.307 53.1904 40.3267 53.21 40.3509 53.21H40.7129C40.7372 53.21 40.7568 53.1904 40.7568 53.1661V52.984C40.7568 52.9598 40.7372 52.9401 40.7129 52.9401Z" fill="#3F3D56"/>
<path d="M41.6126 52.9401H41.2506C41.2263 52.9401 41.2067 52.9598 41.2067 52.984V53.1661C41.2067 53.1904 41.2263 53.21 41.2506 53.21H41.6126C41.6368 53.21 41.6565 53.1904 41.6565 53.1661V52.984C41.6565 52.9598 41.6368 52.9401 41.6126 52.9401Z" fill="#3F3D56"/>
<path d="M42.5122 52.9401H42.1502C42.126 52.9401 42.1063 52.9598 42.1063 52.984V53.1661C42.1063 53.1904 42.126 53.21 42.1502 53.21H42.5122C42.5365 53.21 42.5562 53.1904 42.5562 53.1661V52.984C42.5562 52.9598 42.5365 52.9401 42.5122 52.9401Z" fill="#3F3D56"/>
<path d="M43.4119 52.9401H43.0499C43.0256 52.9401 43.006 52.9598 43.006 52.984V53.1661C43.006 53.1904 43.0256 53.21 43.0499 53.21H43.4119C43.4361 53.21 43.4558 53.1904 43.4558 53.1661V52.984C43.4558 52.9598 43.4361 52.9401 43.4119 52.9401Z" fill="#3F3D56"/>
<path d="M44.3115 52.9401H43.9496C43.9253 52.9401 43.9056 52.9598 43.9056 52.984V53.1661C43.9056 53.1904 43.9253 53.21 43.9496 53.21H44.3115C44.3358 53.21 44.3555 53.1904 44.3555 53.1661V52.984C44.3555 52.9598 44.3358 52.9401 44.3115 52.9401Z" fill="#3F3D56"/>
<path d="M45.2112 52.9401H44.8492C44.825 52.9401 44.8053 52.9598 44.8053 52.984V53.1661C44.8053 53.1904 44.825 53.21 44.8492 53.21H45.2112C45.2355 53.21 45.2551 53.1904 45.2551 53.1661V52.984C45.2551 52.9598 45.2355 52.9401 45.2112 52.9401Z" fill="#3F3D56"/>
<path d="M31.7057 53.39H31.3437C31.3195 53.39 31.2998 53.4096 31.2998 53.4339V53.6159C31.2998 53.6402 31.3195 53.6598 31.3437 53.6598H31.7057C31.73 53.6598 31.7496 53.6402 31.7496 53.6159V53.4339C31.7496 53.4096 31.73 53.39 31.7057 53.39Z" fill="#3F3D56"/>
<path d="M32.6054 53.39H32.2434C32.2191 53.39 32.1995 53.4096 32.1995 53.4339V53.6159C32.1995 53.6402 32.2191 53.6598 32.2434 53.6598H32.6054C32.6296 53.6598 32.6493 53.6402 32.6493 53.6159V53.4339C32.6493 53.4096 32.6296 53.39 32.6054 53.39Z" fill="#3F3D56"/>
<path d="M33.505 53.39H33.143C33.1188 53.39 33.0991 53.4096 33.0991 53.4339V53.6159C33.0991 53.6402 33.1188 53.6598 33.143 53.6598H33.505C33.5293 53.6598 33.5489 53.6402 33.5489 53.6159V53.4339C33.5489 53.4096 33.5293 53.39 33.505 53.39Z" fill="#3F3D56"/>
<path d="M34.4047 53.39H34.0427C34.0184 53.39 33.9988 53.4096 33.9988 53.4339V53.6159C33.9988 53.6402 34.0184 53.6598 34.0427 53.6598H34.4047C34.4289 53.6598 34.4486 53.6402 34.4486 53.6159V53.4339C34.4486 53.4096 34.4289 53.39 34.4047 53.39Z" fill="#3F3D56"/>
<path d="M35.3043 53.39H34.9424C34.9181 53.39 34.8984 53.4096 34.8984 53.4339V53.6159C34.8984 53.6402 34.9181 53.6598 34.9424 53.6598H35.3043C35.3286 53.6598 35.3483 53.6402 35.3483 53.6159V53.4339C35.3483 53.4096 35.3286 53.39 35.3043 53.39Z" fill="#3F3D56"/>
<path d="M36.204 53.39H35.842C35.8178 53.39 35.7981 53.4096 35.7981 53.4339V53.6159C35.7981 53.6402 35.8178 53.6598 35.842 53.6598H36.204C36.2283 53.6598 36.2479 53.6402 36.2479 53.6159V53.4339C36.2479 53.4096 36.2283 53.39 36.204 53.39Z" fill="#3F3D56"/>
<path d="M37.1037 53.39H36.7417C36.7174 53.39 36.6978 53.4096 36.6978 53.4339V53.6159C36.6978 53.6402 36.7174 53.6598 36.7417 53.6598H37.1037C37.1279 53.6598 37.1476 53.6402 37.1476 53.6159V53.4339C37.1476 53.4096 37.1279 53.39 37.1037 53.39Z" fill="#3F3D56"/>
<path d="M38.0033 53.39H37.6413C37.6171 53.39 37.5974 53.4096 37.5974 53.4339V53.6159C37.5974 53.6402 37.6171 53.6598 37.6413 53.6598H38.0033C38.0276 53.6598 38.0472 53.6402 38.0472 53.6159V53.4339C38.0472 53.4096 38.0276 53.39 38.0033 53.39Z" fill="#3F3D56"/>
<path d="M38.903 53.39H38.541C38.5167 53.39 38.4971 53.4096 38.4971 53.4339V53.6159C38.4971 53.6402 38.5167 53.6598 38.541 53.6598H38.903C38.9272 53.6598 38.9469 53.6402 38.9469 53.6159V53.4339C38.9469 53.4096 38.9272 53.39 38.903 53.39Z" fill="#3F3D56"/>
<path d="M39.8026 53.39H39.4406C39.4164 53.39 39.3967 53.4096 39.3967 53.4339V53.6159C39.3967 53.6402 39.4164 53.6598 39.4406 53.6598H39.8026C39.8269 53.6598 39.8466 53.6402 39.8466 53.6159V53.4339C39.8466 53.4096 39.8269 53.39 39.8026 53.39Z" fill="#3F3D56"/>
<path d="M40.7023 53.39H40.3403C40.3161 53.39 40.2964 53.4096 40.2964 53.4339V53.6159C40.2964 53.6402 40.3161 53.6598 40.3403 53.6598H40.7023C40.7265 53.6598 40.7462 53.6402 40.7462 53.6159V53.4339C40.7462 53.4096 40.7265 53.39 40.7023 53.39Z" fill="#3F3D56"/>
<path d="M41.602 53.39H41.24C41.2157 53.39 41.196 53.4096 41.196 53.4339V53.6159C41.196 53.6402 41.2157 53.6598 41.24 53.6598H41.602C41.6262 53.6598 41.6459 53.6402 41.6459 53.6159V53.4339C41.6459 53.4096 41.6262 53.39 41.602 53.39Z" fill="#3F3D56"/>
<path d="M42.5016 53.39H42.1396C42.1154 53.39 42.0957 53.4096 42.0957 53.4339V53.6159C42.0957 53.6402 42.1154 53.6598 42.1396 53.6598H42.5016C42.5259 53.6598 42.5455 53.6402 42.5455 53.6159V53.4339C42.5455 53.4096 42.5259 53.39 42.5016 53.39Z" fill="#3F3D56"/>
<path d="M43.4013 53.39H43.0393C43.015 53.39 42.9954 53.4096 42.9954 53.4339V53.6159C42.9954 53.6402 43.015 53.6598 43.0393 53.6598H43.4013C43.4255 53.6598 43.4452 53.6402 43.4452 53.6159V53.4339C43.4452 53.4096 43.4255 53.39 43.4013 53.39Z" fill="#3F3D56"/>
<path d="M44.3009 53.39H43.9389C43.9147 53.39 43.895 53.4096 43.895 53.4339V53.6159C43.895 53.6402 43.9147 53.6598 43.9389 53.6598H44.3009C44.3252 53.6598 44.3448 53.6402 44.3448 53.6159V53.4339C44.3448 53.4096 44.3252 53.39 44.3009 53.39Z" fill="#3F3D56"/>
<path d="M45.2006 53.39H44.8386C44.8143 53.39 44.7947 53.4096 44.7947 53.4339V53.6159C44.7947 53.6402 44.8143 53.6598 44.8386 53.6598H45.2006C45.2248 53.6598 45.2445 53.6402 45.2445 53.6159V53.4339C45.2445 53.4096 45.2248 53.39 45.2006 53.39Z" fill="#3F3D56"/>
<path d="M39.1729 53.9297H35.6621C35.6378 53.9297 35.6182 53.9494 35.6182 53.9737V54.1557C35.6182 54.18 35.6378 54.1996 35.6621 54.1996H39.1729C39.1971 54.1996 39.2168 54.18 39.2168 54.1557V53.9737C39.2168 53.9494 39.1971 53.9297 39.1729 53.9297Z" fill="#3F3D56"/>
<path d="M49.133 32.1923H26.1627C26.1388 32.1918 26.1161 32.182 26.0994 32.1649C26.0827 32.1478 26.0734 32.1249 26.0734 32.101C26.0734 32.0771 26.0827 32.0542 26.0994 32.0371C26.1161 32.02 26.1388 32.0102 26.1627 32.0096H49.133C49.1569 32.0102 49.1796 32.02 49.1963 32.0371C49.213 32.0542 49.2224 32.0771 49.2224 32.101C49.2224 32.1249 49.213 32.1478 49.1963 32.1649C49.1796 32.182 49.1569 32.1918 49.133 32.1923Z" fill="#3F3D56"/>
<path d="M27.7264 31.5433C28.022 31.5433 28.2617 31.2982 28.2617 30.996C28.2617 30.6937 28.022 30.4487 27.7264 30.4487C27.4307 30.4487 27.191 30.6937 27.191 30.996C27.191 31.2982 27.4307 31.5433 27.7264 31.5433Z" fill="#3F3D56"/>
<path d="M29.5757 31.5433C29.8714 31.5433 30.1111 31.2982 30.1111 30.996C30.1111 30.6937 29.8714 30.4487 29.5757 30.4487C29.2801 30.4487 29.0404 30.6937 29.0404 30.996C29.0404 31.2982 29.2801 31.5433 29.5757 31.5433Z" fill="#3F3D56"/>
<path d="M31.4251 31.5433C31.7208 31.5433 31.9604 31.2982 31.9604 30.996C31.9604 30.6937 31.7208 30.4487 31.4251 30.4487C31.1294 30.4487 30.8898 30.6937 30.8898 30.996C30.8898 31.2982 31.1294 31.5433 31.4251 31.5433Z" fill="#3F3D56"/>
<path d="M48.0195 30.5841H46.706C46.68 30.5847 46.6553 30.5955 46.6372 30.614C46.619 30.6326 46.6089 30.6575 46.6089 30.6835C46.6089 30.7095 46.619 30.7344 46.6372 30.753C46.6553 30.7716 46.68 30.7823 46.706 30.7829H48.0195C48.0456 30.7826 48.0706 30.7719 48.0889 30.7533C48.1072 30.7347 48.1175 30.7096 48.1175 30.6835C48.1175 30.6574 48.1072 30.6323 48.0889 30.6137C48.0706 30.5951 48.0456 30.5845 48.0195 30.5841Z" fill="#3F3D56"/>
<path d="M48.0195 30.9575H46.706C46.68 30.958 46.6553 30.9688 46.6371 30.9873C46.6189 31.0059 46.6088 31.0309 46.6088 31.0569C46.6088 31.0829 46.6189 31.1078 46.6371 31.1264C46.6553 31.145 46.68 31.1557 46.706 31.1563H48.0195C48.0457 31.156 48.0706 31.1454 48.089 31.1267C48.1074 31.1081 48.1177 31.083 48.1177 31.0569C48.1177 31.0307 48.1074 31.0056 48.089 30.987C48.0706 30.9684 48.0457 30.9578 48.0195 30.9575Z" fill="#3F3D56"/>
<path d="M48.0195 31.3308H46.706C46.68 31.3314 46.6553 31.3422 46.6372 31.3607C46.619 31.3793 46.6089 31.4042 46.6089 31.4302C46.6089 31.4562 46.619 31.4811 46.6372 31.4997C46.6553 31.5183 46.68 31.529 46.706 31.5296H48.0195C48.0456 31.5293 48.0706 31.5186 48.0889 31.5C48.1072 31.4814 48.1175 31.4563 48.1175 31.4302C48.1175 31.4041 48.1072 31.379 48.0889 31.3604C48.0706 31.3418 48.0456 31.3312 48.0195 31.3308Z" fill="#3F3D56"/>
<path d="M28.1434 34.3152H27.6715C27.5284 34.3152 27.4124 34.4312 27.4124 34.5743C27.4124 34.7174 27.5284 34.8334 27.6715 34.8334H28.1434C28.2865 34.8334 28.4025 34.7174 28.4025 34.5743C28.4025 34.4312 28.2865 34.3152 28.1434 34.3152Z" fill="#E6E6E6"/>
<path d="M33.5414 34.3152H33.0694C32.9263 34.3152 32.8103 34.4312 32.8103 34.5743C32.8103 34.7174 32.9263 34.8334 33.0694 34.8334H33.5414C33.6845 34.8334 33.8005 34.7174 33.8005 34.5743C33.8005 34.4312 33.6845 34.3152 33.5414 34.3152Z" fill="#E6E6E6"/>
<path d="M35.0708 34.3152H34.5988C34.4557 34.3152 34.3397 34.4312 34.3397 34.5743C34.3397 34.7174 34.4557 34.8334 34.5988 34.8334H35.0708C35.2139 34.8334 35.3299 34.7174 35.3299 34.5743C35.3299 34.4312 35.2139 34.3152 35.0708 34.3152Z" fill="#E6E6E6"/>
<path d="M32.0731 34.272H29.1397C28.9966 34.272 28.8806 34.388 28.8806 34.5311C28.8806 34.6742 28.9966 34.7902 29.1397 34.7902H32.0731C32.2162 34.7902 32.3322 34.6742 32.3322 34.5311C32.3322 34.388 32.2162 34.272 32.0731 34.272Z" fill="#E6E6E6"/>
<path d="M39.2704 34.272H36.337C36.1939 34.272 36.0779 34.388 36.0779 34.5311C36.0779 34.6742 36.1939 34.7902 36.337 34.7902H39.2704C39.4135 34.7902 39.5295 34.6742 39.5295 34.5311C39.5295 34.388 39.4135 34.272 39.2704 34.272Z" fill="#E6E6E6"/>
<path d="M29.5829 35.4848H29.1109C28.9678 35.4848 28.8518 35.6008 28.8518 35.7439C28.8518 35.887 28.9678 36.003 29.1109 36.003H29.5829C29.726 36.003 29.842 35.887 29.842 35.7439C29.842 35.6008 29.726 35.4848 29.5829 35.4848Z" fill="#E6E6E6"/>
<path d="M34.9808 35.4848H34.5089C34.3658 35.4848 34.2498 35.6008 34.2498 35.7439C34.2498 35.887 34.3658 36.003 34.5089 36.003H34.9808C35.1239 36.003 35.2399 35.887 35.2399 35.7439C35.2399 35.6008 35.1239 35.4848 34.9808 35.4848Z" fill="#E6E6E6"/>
<path d="M36.5102 35.4848H36.0383C35.8952 35.4848 35.7792 35.6008 35.7792 35.7439C35.7792 35.887 35.8952 36.003 36.0383 36.003H36.5102C36.6533 36.003 36.7693 35.887 36.7693 35.7439C36.7693 35.6008 36.6533 35.4848 36.5102 35.4848Z" fill="#E6E6E6"/>
<path d="M33.5126 35.4416H30.5792C30.4361 35.4416 30.3201 35.5576 30.3201 35.7007C30.3201 35.8438 30.4361 35.9598 30.5792 35.9598H33.5126C33.6557 35.9598 33.7717 35.8438 33.7717 35.7007C33.7717 35.5576 33.6557 35.4416 33.5126 35.4416Z" fill="#E6E6E6"/>
<path d="M40.7098 35.4416H37.7764C37.6333 35.4416 37.5173 35.5576 37.5173 35.7007C37.5173 35.8438 37.6333 35.9598 37.7764 35.9598H40.7098C40.8529 35.9598 40.9689 35.8438 40.9689 35.7007C40.9689 35.5576 40.8529 35.4416 40.7098 35.4416Z" fill="#E6E6E6"/>
<path d="M31.0223 36.6544H30.5504C30.4073 36.6544 30.2913 36.7704 30.2913 36.9135C30.2913 37.0565 30.4073 37.1726 30.5504 37.1726H31.0223C31.1654 37.1726 31.2814 37.0565 31.2814 36.9135C31.2814 36.7704 31.1654 36.6544 31.0223 36.6544Z" fill="#E6E6E6"/>
<path d="M36.4203 36.6544H35.9483C35.8052 36.6544 35.6892 36.7704 35.6892 36.9135C35.6892 37.0565 35.8052 37.1726 35.9483 37.1726H36.4203C36.5634 37.1726 36.6794 37.0565 36.6794 36.9135C36.6794 36.7704 36.5634 36.6544 36.4203 36.6544Z" fill="#E6E6E6"/>
<path d="M37.9497 36.6544H37.4777C37.3346 36.6544 37.2186 36.7704 37.2186 36.9135C37.2186 37.0565 37.3346 37.1726 37.4777 37.1726H37.9497C38.0928 37.1726 38.2088 37.0565 38.2088 36.9135C38.2088 36.7704 38.0928 36.6544 37.9497 36.6544Z" fill="#E6E6E6"/>
<path d="M34.952 36.6111H32.0186C31.8755 36.6111 31.7595 36.7271 31.7595 36.8702C31.7595 37.0133 31.8755 37.1293 32.0186 37.1293H34.952C35.0951 37.1293 35.2111 37.0133 35.2111 36.8702C35.2111 36.7271 35.0951 36.6111 34.952 36.6111Z" fill="#E6E6E6"/>
<path d="M42.1492 36.6111H39.2158C39.0727 36.6111 38.9567 36.7271 38.9567 36.8702C38.9567 37.0133 39.0727 37.1293 39.2158 37.1293H42.1492C42.2922 37.1293 42.4083 37.0133 42.4083 36.8702C42.4083 36.7271 42.2922 36.6111 42.1492 36.6111Z" fill="#E6E6E6"/>
<path d="M32.4618 37.8239H31.9898C31.8467 37.8239 31.7307 37.9399 31.7307 38.083C31.7307 38.2261 31.8467 38.3421 31.9898 38.3421H32.4618C32.6049 38.3421 32.7209 38.2261 32.7209 38.083C32.7209 37.9399 32.6049 37.8239 32.4618 37.8239Z" fill="#E6E6E6"/>
<path d="M37.8597 37.8239H37.3878C37.2447 37.8239 37.1287 37.9399 37.1287 38.083C37.1287 38.2261 37.2447 38.3421 37.3878 38.3421H37.8597C38.0028 38.3421 38.1188 38.2261 38.1188 38.083C38.1188 37.9399 38.0028 37.8239 37.8597 37.8239Z" fill="#E6E6E6"/>
<path d="M39.389 37.8239H38.9171C38.774 37.8239 38.658 37.9399 38.658 38.083C38.658 38.2261 38.774 38.3421 38.9171 38.3421H39.389C39.5321 38.3421 39.6481 38.2261 39.6481 38.083C39.6481 37.9399 39.5321 37.8239 39.389 37.8239Z" fill="#E6E6E6"/>
<path d="M36.3915 37.7807H33.4581C33.315 37.7807 33.199 37.8967 33.199 38.0398C33.199 38.1829 33.315 38.2989 33.4581 38.2989H36.3915C36.5346 38.2989 36.6506 38.1829 36.6506 38.0398C36.6506 37.8967 36.5346 37.7807 36.3915 37.7807Z" fill="#E6E6E6"/>
<path d="M33.5414 42.4745H33.0694C32.9263 42.4745 32.8103 42.5906 32.8103 42.7336C32.8103 42.8767 32.9263 42.9927 33.0694 42.9927H33.5414C33.6845 42.9927 33.8005 42.8767 33.8005 42.7336C33.8005 42.5906 33.6845 42.4745 33.5414 42.4745Z" fill="#E6E6E6"/>
<path d="M35.0708 42.4745H34.5988C34.4557 42.4745 34.3397 42.5906 34.3397 42.7336C34.3397 42.8767 34.4557 42.9927 34.5988 42.9927H35.0708C35.2139 42.9927 35.3299 42.8767 35.3299 42.7336C35.3299 42.5906 35.2139 42.4745 35.0708 42.4745Z" fill="#E6E6E6"/>
<path d="M39.2704 42.5177H36.337C36.1939 42.5177 36.0779 42.6337 36.0779 42.7768C36.0779 42.9199 36.1939 43.0359 36.337 43.0359H39.2704C39.4135 43.0359 39.5295 42.9199 39.5295 42.7768C39.5295 42.6337 39.4135 42.5177 39.2704 42.5177Z" fill="#E6E6E6"/>
<path d="M28.1434 42.4745H27.6715C27.5284 42.4745 27.4124 42.5906 27.4124 42.7336C27.4124 42.8767 27.5284 42.9927 27.6715 42.9927H28.1434C28.2865 42.9927 28.4025 42.8767 28.4025 42.7336C28.4025 42.5906 28.2865 42.4745 28.1434 42.4745Z" fill="#E6E6E6"/>
<path d="M32.0731 42.5177H29.1397C28.9966 42.5177 28.8806 42.6337 28.8806 42.7768C28.8806 42.9199 28.9966 43.0359 29.1397 43.0359H32.0731C32.2162 43.0359 32.3322 42.9199 32.3322 42.7768C32.3322 42.6337 32.2162 42.5177 32.0731 42.5177Z" fill="#E6E6E6"/>
<path d="M29.5829 41.305H29.1109C28.9678 41.305 28.8518 41.421 28.8518 41.5641C28.8518 41.7072 28.9678 41.8232 29.1109 41.8232H29.5829C29.726 41.8232 29.842 41.7072 29.842 41.5641C29.842 41.421 29.726 41.305 29.5829 41.305Z" fill="#E6E6E6"/>
<path d="M34.9808 41.305H34.5089C34.3658 41.305 34.2498 41.421 34.2498 41.5641C34.2498 41.7072 34.3658 41.8232 34.5089 41.8232H34.9808C35.1239 41.8232 35.2399 41.7072 35.2399 41.5641C35.2399 41.421 35.1239 41.305 34.9808 41.305Z" fill="#E6E6E6"/>
<path d="M36.5102 41.305H36.0383C35.8952 41.305 35.7792 41.421 35.7792 41.5641C35.7792 41.7072 35.8952 41.8232 36.0383 41.8232H36.5102C36.6533 41.8232 36.7693 41.7072 36.7693 41.5641C36.7693 41.421 36.6533 41.305 36.5102 41.305Z" fill="#E6E6E6"/>
<path d="M33.5126 41.3481H30.5792C30.4361 41.3481 30.3201 41.4641 30.3201 41.6072C30.3201 41.7503 30.4361 41.8663 30.5792 41.8663H33.5126C33.6557 41.8663 33.7717 41.7503 33.7717 41.6072C33.7717 41.4641 33.6557 41.3481 33.5126 41.3481Z" fill="#E6E6E6"/>
<path d="M31.0223 40.1354H30.5504C30.4073 40.1354 30.2913 40.2514 30.2913 40.3945C30.2913 40.5376 30.4073 40.6536 30.5504 40.6536H31.0223C31.1654 40.6536 31.2814 40.5376 31.2814 40.3945C31.2814 40.2514 31.1654 40.1354 31.0223 40.1354Z" fill="#E6E6E6"/>
<path d="M36.4203 40.1354H35.9483C35.8052 40.1354 35.6892 40.2514 35.6892 40.3945C35.6892 40.5376 35.8052 40.6536 35.9483 40.6536H36.4203C36.5634 40.6536 36.6794 40.5376 36.6794 40.3945C36.6794 40.2514 36.5634 40.1354 36.4203 40.1354Z" fill="#E6E6E6"/>
<path d="M37.9497 40.1354H37.4777C37.3346 40.1354 37.2186 40.2514 37.2186 40.3945C37.2186 40.5376 37.3346 40.6536 37.4777 40.6536H37.9497C38.0928 40.6536 38.2088 40.5376 38.2088 40.3945C38.2088 40.2514 38.0928 40.1354 37.9497 40.1354Z" fill="#E6E6E6"/>
<path d="M34.952 40.1786H32.0186C31.8755 40.1786 31.7595 40.2947 31.7595 40.4377C31.7595 40.5808 31.8755 40.6968 32.0186 40.6968H34.952C35.0951 40.6968 35.2111 40.5808 35.2111 40.4377C35.2111 40.2947 35.0951 40.1786 34.952 40.1786Z" fill="#E6E6E6"/>
<path d="M32.4618 38.9659H31.9898C31.8467 38.9659 31.7307 39.0819 31.7307 39.225C31.7307 39.3681 31.8467 39.4841 31.9898 39.4841H32.4618C32.6049 39.4841 32.7209 39.3681 32.7209 39.225C32.7209 39.0819 32.6049 38.9659 32.4618 38.9659Z" fill="#E6E6E6"/>
<path d="M37.8597 38.9659H37.3878C37.2447 38.9659 37.1287 39.0819 37.1287 39.225C37.1287 39.3681 37.2447 39.4841 37.3878 39.4841H37.8597C38.0028 39.4841 38.1188 39.3681 38.1188 39.225C38.1188 39.0819 38.0028 38.9659 37.8597 38.9659Z" fill="#E6E6E6"/>
<path d="M39.389 38.9659H38.9171C38.774 38.9659 38.658 39.0819 38.658 39.225C38.658 39.3681 38.774 39.4841 38.9171 39.4841H39.389C39.5321 39.4841 39.6481 39.3681 39.6481 39.225C39.6481 39.0819 39.5321 38.9659 39.389 38.9659Z" fill="#E6E6E6"/>
<path d="M36.3915 39.0091H33.4581C33.315 39.0091 33.199 39.1251 33.199 39.2682C33.199 39.4113 33.315 39.5273 33.4581 39.5273H36.3915C36.5346 39.5273 36.6506 39.4113 36.6506 39.2682C36.6506 39.1251 36.5346 39.0091 36.3915 39.0091Z" fill="#E6E6E6"/>
<path d="M49.4085 59.3703C49.3536 59.3982 49.2978 59.4261 49.2429 59.4531C47.8215 60.1638 46.6843 60.5678 45.1288 61.0104C44.9975 59.544 44.8706 56.9665 44.7474 55.3687C44.715 54.9539 44.6826 54.6058 44.6511 54.3602C44.6431 54.2296 44.6165 54.1008 44.5719 53.9778L44.5773 54.3602L44.5908 55.3687L44.6691 61.1364C42.7342 61.6483 40.7465 61.9348 38.7458 61.9901C38.6414 61.9928 38.5388 61.9946 38.4399 61.9964C38.4048 61.9973 38.3706 61.9982 38.3364 61.9982C38.224 61.9991 38.1124 62 37.9999 62C35.8915 62.0016 33.7907 61.7469 31.7438 61.2416C31.7878 59.7905 31.8319 57.2418 31.8742 55.3687C31.8832 55.0025 31.8913 54.6616 31.9003 54.3602C31.9174 53.716 31.9354 53.2518 31.9525 53.0962C31.9373 53.1237 31.9255 53.153 31.9174 53.1834C31.8341 53.5714 31.7773 53.9645 31.7474 54.3602C31.7159 54.6616 31.6844 55.0025 31.6529 55.3687C31.4856 57.3146 31.311 59.9605 31.1311 61.0824C30.0601 60.79 29.0092 60.4285 27.985 60.0001C27.4452 59.7752 26.915 59.5326 26.3944 59.2723C26.4934 58.6245 26.5968 57.8985 26.703 57.1455C26.7858 56.5616 26.8712 55.9616 26.9585 55.3687C27.0934 54.4528 27.232 53.555 27.3723 52.7642C27.5775 51.609 27.788 50.6806 27.9967 50.2541C28.1946 49.8493 28.3925 49.4499 28.5842 49.0675C28.6507 48.9335 28.7173 48.8012 28.7821 48.6726C28.7974 48.642 28.8127 48.6123 28.828 48.5826C28.9656 48.3118 29.0988 48.0527 29.2256 47.8098C29.3345 47.602 29.4379 47.4058 29.536 47.225C29.7735 46.786 29.975 46.436 30.1244 46.2147C30.7487 45.2676 31.6782 44.5626 32.7586 44.2166L32.7855 44.2094L32.8044 44.2175L34.6442 43.6525L34.9132 43.5697L35.0941 43.5139L35.731 43.029L36.0774 42.7654L36.4022 42.518L37.0373 42.0349L40.9697 42.2769L41.7353 44.1203L43.4501 44.7474L43.4797 44.7339L43.5058 44.7231L43.5328 44.7303C44.613 45.0766 45.5424 45.7816 46.167 46.7284C46.2516 46.8553 46.3541 47.0226 46.4702 47.225C46.5692 47.3969 46.6771 47.593 46.7941 47.8098C46.9605 48.1184 47.1422 48.4665 47.3348 48.8435C47.377 48.9263 47.4202 49.0108 47.4634 49.0963C47.5435 49.2546 47.6247 49.4163 47.7072 49.5812C47.8988 49.9636 48.0968 50.363 48.2947 50.7687C48.4665 51.1205 48.6402 51.8438 48.8111 52.7642C48.9523 53.5289 49.0927 54.4303 49.2285 55.3687C49.4067 56.585 49.2168 58.0415 49.3779 59.1607C49.3878 59.2318 49.3986 59.3011 49.4085 59.3703Z" fill="#3F3D56"/>
<path d="M38.0553 40.5635C40.5812 40.5635 42.6289 38.5158 42.6289 35.99C42.6289 33.4641 40.5812 31.4164 38.0553 31.4164C35.5294 31.4164 33.4818 33.4641 33.4818 35.99C33.4818 38.5158 35.5294 40.5635 38.0553 40.5635Z" fill="#A0616A"/>
<path d="M45.5976 29.9291C45.5072 29.7181 45.3869 29.5212 45.2404 29.3444C44.5459 28.496 43.2828 28.1226 41.9864 29.1267C41.7368 29.0709 41.4767 29.0859 41.2352 29.1698C41.1212 29.2111 41.0143 29.27 40.9185 29.3444C40.7222 29.4975 40.569 29.699 40.4741 29.9291C40.4233 30.0507 40.39 30.1788 40.3751 30.3097C40.0546 30.1432 39.7155 30.0154 39.3648 29.9291C38.5043 29.7151 37.6046 29.7151 36.7441 29.9291C36.4684 29.9989 36.2029 30.1041 35.9542 30.2422C35.5332 30.4851 35.2912 30.7919 35.248 31.1329C34.6407 31.1671 34.0092 31.4864 33.5386 32.01C33.4856 32.0685 33.4343 32.1297 33.3866 32.1927C32.9909 32.7104 32.7783 33.3449 32.782 33.9965V34.1107H32.8963C33.2093 34.1104 33.5195 34.1709 33.8094 34.2889C33.9973 34.3644 34.1753 34.4625 34.3393 34.5813C34.4467 34.6574 34.548 34.7416 34.6425 34.8332C34.8616 35.0453 35.0473 35.2895 35.1931 35.5574C35.5669 36.2343 35.6965 37.0192 35.5602 37.7804C35.5289 37.9566 35.4832 38.1299 35.4234 38.2986C35.3384 38.5393 35.2265 38.7696 35.0896 38.9851C35.0842 38.9932 35.0797 39.0013 35.0743 39.0094C35.0141 39.1056 34.9565 39.2037 34.9025 39.3026C34.862 39.3764 34.8242 39.452 34.7892 39.5276C34.6866 39.7379 34.6 39.9556 34.5301 40.1789C34.4048 40.5738 34.3311 40.9832 34.3105 41.397C34.3042 41.5068 34.3024 41.6166 34.306 41.7263C34.3114 42.0092 34.3424 42.2911 34.3987 42.5684C34.4068 42.6062 34.4149 42.6431 34.423 42.6808L34.4887 42.9678L34.6443 43.6525L34.7523 44.1239L34.8521 44.5611L34.9997 44.3497C35.0501 44.2777 35.1769 44.0564 35.3469 43.7433C35.4594 43.5391 35.5899 43.2953 35.7311 43.029C35.9281 42.6557 36.144 42.2391 36.3554 41.8235C36.4409 41.6552 36.5255 41.4879 36.6074 41.3242C36.7621 41.0138 36.9078 40.7142 37.0329 40.4479C37.1481 40.2023 37.2461 39.9846 37.319 39.81C37.3415 39.9243 37.3604 40.0404 37.3748 40.1573C37.391 40.2761 37.4027 40.3966 37.409 40.5172C37.4108 40.5352 37.4116 40.5541 37.4125 40.5721L37.4162 40.6458L37.4171 40.6674L37.5124 40.68C38.0624 40.7389 38.6169 40.7431 39.1678 40.6926H39.1687C39.8984 40.6377 40.6143 40.4642 41.2883 40.1789C41.671 40.0129 42.0284 39.7936 42.3498 39.5276C42.5 39.4032 42.6402 39.2673 42.7691 39.1209C42.8015 39.084 42.833 39.0471 42.8636 39.0094C43.0416 38.7905 43.194 38.5521 43.3179 38.2986C43.4008 38.1314 43.4712 37.9582 43.5284 37.7804C43.8739 36.7341 43.8541 35.4287 43.469 33.8777C43.573 33.8577 43.6726 33.8193 43.7632 33.7644C44.0457 33.5943 44.2418 33.257 44.303 32.8449L44.4002 32.871C44.7446 32.7106 45.0514 32.4795 45.3007 32.1927C45.3501 32.1343 45.3963 32.0733 45.4393 32.0101C45.8792 31.3623 45.8828 30.585 45.5976 29.9291Z" fill="#2F2E41"/>
<path opacity="0.2" d="M30.5616 52.7602L31.3261 49.8101L32.0011 52.3557L30.5616 52.7602Z" fill="black"/>
<path d="M50.9037 50.838C50.6302 54.6057 50.9136 56.2647 49.404 59.3712C48.0305 60.0435 46.5998 60.592 45.1289 61.0104C44.9759 61.0535 44.8227 61.0955 44.6691 61.1363C42.7342 61.6483 40.7466 61.9348 38.7458 61.9901C38.6414 61.9928 38.5389 61.9946 38.4399 61.9964C38.4048 61.9973 38.3707 61.9982 38.3365 61.9982C38.224 61.9991 38.1125 62 38 62C35.8916 62.0015 33.7908 61.7469 31.7438 61.2416C31.5387 61.1912 31.3345 61.1381 31.1311 61.0823C30.0602 60.7899 29.0092 60.4284 27.985 60C27.4453 59.7751 26.9151 59.5325 26.3945 59.2722C26.2766 59.2128 26.1587 59.1535 26.0427 59.0923C25.4462 58.0433 25.1071 56.7676 25.0999 55.2346C25.5128 52.5932 49.9915 48.56 50.9037 50.838Z" fill="#2F2E41"/>
<path opacity="0.2" d="M50.9031 51.4832C50.917 51.25 50.9326 51.009 50.9508 50.7581C50.0386 48.4802 25.5599 52.5134 25.147 55.1547C25.1481 55.3969 25.1585 55.6319 25.1759 55.8614C26.1759 53.2543 49.431 49.4211 50.9031 51.4832Z" fill="black"/>
<path d="M26.673 40.7818C26.679 40.7002 26.6674 40.6184 26.639 40.5416C26.6107 40.4649 26.5663 40.3952 26.5087 40.3371C26.4511 40.279 26.3818 40.2339 26.3053 40.2048C26.2289 40.1758 26.1471 40.1634 26.0655 40.1686C26.0351 40.1698 26.0048 40.1736 25.9751 40.18L22.3979 40.9881C22.3179 41.0075 22.2429 41.0434 22.1777 41.0935C22.1125 41.1436 22.0585 41.2069 22.0192 41.2791C21.9668 41.2811 21.9147 41.2887 21.8638 41.3017C21.7525 41.3269 21.6472 41.3739 21.554 41.4398C21.4609 41.5057 21.3816 41.5893 21.3207 41.6859C21.2598 41.7824 21.2186 41.89 21.1993 42.0025C21.18 42.115 21.183 42.2302 21.2083 42.3415C21.2335 42.4529 21.2804 42.5581 21.3463 42.6513C21.4122 42.7445 21.4959 42.8238 21.5924 42.8847C21.7874 43.0076 22.0233 43.048 22.2481 42.9971C22.3761 42.9674 22.4958 42.9095 22.5985 42.8276L23.8107 46.2409C23.8712 46.3479 23.9648 46.4324 24.0773 46.4818C24.1899 46.5312 24.3154 46.5428 24.4351 46.515L26.7606 45.9894C26.8794 45.9616 26.9863 45.8968 27.066 45.8044C27.1457 45.712 27.1941 45.5967 27.2042 45.4751L26.673 40.7818ZM22.1944 42.7541C22.0338 42.7903 21.8655 42.7614 21.7262 42.6736C21.5869 42.5859 21.4881 42.4465 21.4515 42.2861C21.4148 42.1256 21.4433 41.9572 21.5307 41.8177C21.618 41.6782 21.7571 41.579 21.9175 41.5419C21.9288 41.5391 21.9401 41.5419 21.9514 41.5391C21.9506 41.642 21.9769 41.7434 22.0277 41.8329L22.4713 42.6071C22.3941 42.6804 22.2984 42.7312 22.1944 42.7541Z" fill="#2F2E41"/>
<path d="M26.0655 40.1686C26.0994 40.6207 25.3252 41.1407 24.2882 41.3469C23.3359 41.5419 22.4826 41.4063 22.2424 41.0502C22.2907 41.0216 22.3431 41.0006 22.3979 40.9881L25.9751 40.18C26.0048 40.1736 26.0351 40.1698 26.0655 40.1686Z" fill="#3F3D56"/>
<path d="M23.5914 51.6454L25.6007 50.6408L23.9263 46.12L23.485 43.8401C23.4277 43.5439 23.2936 43.2679 23.0962 43.0397C22.8988 42.8116 22.645 42.6392 22.3601 42.5399C22.0753 42.4406 21.7693 42.4177 21.4728 42.4737C21.1764 42.5297 20.8998 42.6624 20.6707 42.8588C20.3313 43.1497 20.1181 43.5612 20.0763 44.0063C20.0345 44.4514 20.1672 44.8954 20.4465 45.2445L22.0845 47.292L23.5914 51.6454Z" fill="#A0616A"/>
<path d="M25.6006 49.8036L22.9216 51.1431L24.9547 57.5135C25.1007 57.9709 25.3624 58.3829 25.7145 58.7094C26.0666 59.036 26.497 59.266 26.9642 59.3772C27.5401 59.5144 28.1448 59.4645 28.6906 59.2349C29.2363 59.0052 29.6947 58.6077 29.9994 58.1L35.3905 48.8593C35.7726 48.2226 35.8905 47.4616 35.7191 46.7391C35.5477 46.0166 35.1006 45.3897 34.4733 44.9924C34.1359 44.7787 33.7572 44.6385 33.3621 44.5808C32.9669 44.5231 32.564 44.5493 32.1796 44.6576C31.7951 44.7659 31.4379 44.954 31.1309 45.2096C30.824 45.4651 30.5744 45.7824 30.3982 46.1408L27.1076 53.1524L25.6006 49.8036Z" fill="#3F3D56"/>
<path d="M24.7721 44.0466C24.7671 44.0466 24.7622 44.0458 24.7575 44.0442L24.1726 43.8428C24.1655 43.8404 24.1592 43.8363 24.1541 43.8308C24.149 43.8253 24.1454 43.8186 24.1436 43.8114C24.1418 43.8041 24.1418 43.7965 24.1436 43.7893C24.1454 43.7821 24.149 43.7754 24.1541 43.7699L24.5891 43.2963C24.5931 43.2919 24.5979 43.2883 24.6033 43.2858C24.6086 43.2833 24.6144 43.2819 24.6203 43.2816C24.6263 43.2813 24.6322 43.2822 24.6377 43.2843C24.6433 43.2863 24.6484 43.2894 24.6528 43.2934C24.6571 43.2974 24.6607 43.3022 24.6632 43.3076C24.6656 43.313 24.6671 43.3188 24.6673 43.3247C24.6675 43.3306 24.6666 43.3365 24.6646 43.3421C24.6625 43.3476 24.6594 43.3527 24.6554 43.3571L24.2668 43.7801L24.7867 43.9591C24.7968 43.9626 24.8053 43.9695 24.8108 43.9787C24.8162 43.9878 24.8182 43.9986 24.8165 44.0091C24.8147 44.0196 24.8093 44.0291 24.8012 44.036C24.7931 44.0429 24.7828 44.0466 24.7721 44.0466Z" fill="#6AC8D2"/>
<path d="M25.5738 43.8825C25.5649 43.8825 25.5561 43.8799 25.5487 43.8748C25.5412 43.8698 25.5355 43.8627 25.5321 43.8544C25.5288 43.8461 25.528 43.837 25.5298 43.8282C25.5317 43.8195 25.5361 43.8114 25.5425 43.8052L25.9379 43.4229L25.4068 43.2041C25.4013 43.2019 25.3964 43.1986 25.3922 43.1944C25.388 43.1902 25.3847 43.1853 25.3824 43.1798C25.3801 43.1744 25.3789 43.1685 25.3789 43.1626C25.3789 43.1567 25.38 43.1508 25.3823 43.1454C25.3845 43.1399 25.3879 43.1349 25.392 43.1308C25.3962 43.1266 25.4012 43.1233 25.4066 43.121C25.4121 43.1187 25.4179 43.1176 25.4239 43.1176C25.4298 43.1176 25.4356 43.1187 25.4411 43.121L26.0357 43.366C26.0426 43.3689 26.0487 43.3734 26.0534 43.3791C26.0581 43.3849 26.0613 43.3918 26.0627 43.3991C26.0642 43.4065 26.0637 43.414 26.0615 43.4212C26.0592 43.4283 26.0552 43.4347 26.0498 43.4399L25.6051 43.8699C25.5967 43.878 25.5855 43.8825 25.5738 43.8825Z" fill="#6AC8D2"/>
<path d="M24.8949 44.3218C24.8904 44.3218 24.8859 44.3212 24.8816 44.3198C24.876 44.3181 24.8707 44.3152 24.8662 44.3115C24.8616 44.3077 24.8578 44.3031 24.8551 44.2979C24.8523 44.2926 24.8506 44.2869 24.8501 44.281C24.8495 44.2752 24.8501 44.2692 24.8518 44.2636L25.267 42.9141C25.2706 42.9027 25.2785 42.8932 25.289 42.8877C25.2996 42.8821 25.3119 42.881 25.3232 42.8845C25.3346 42.888 25.3441 42.8959 25.3497 42.9064C25.3553 42.9169 25.3565 42.9292 25.353 42.9406L24.9379 44.2901C24.935 44.2993 24.9293 44.3073 24.9216 44.313C24.9138 44.3188 24.9045 44.3218 24.8949 44.3218Z" fill="#6AC8D2"/>
</g>
<defs>
<clipPath id="clip0_242_1909">
<rect width="52" height="52" fill="white" transform="translate(12 10)"/>
</clipPath>
</defs>
</svg>
